<svg width="574" height="559" viewBox="0 0 574 559" fill="none" xmlns="http://www.w3.org/2000/svg">
<mask id="path-1-inside-1_1_4" fill="white">
<path d="M355.855 23.2856C357.102 23.4864 357.113 23.599 357.741 24.3673C357.862 24.9332 357.912 25.2932 357.772 25.8693C356.497 31.0873 316.272 58.7474 310.896 61.9038C308.517 68.124 307.323 70.5932 303.589 76.0815C313.2 75.8606 324.388 76.3172 334.153 76.4106L388.31 76.6741C408.3 76.754 426.683 80.1159 441.097 95.0306C452.852 107.193 453.289 120.238 453.625 136.004L454.065 161.014C454.329 181.18 455.077 201.372 454.934 221.552C477.451 244.954 492.429 280.565 484.273 313.104C480.411 328.526 470.54 345.966 457.373 355.243C451.145 359.63 450.063 358.951 447.804 367.194C445.099 374.37 434.743 382.352 428.191 386.394C432.734 391.216 446.307 406.985 447.911 413.001C451.605 412.959 455.36 413.197 459.144 413.161L473.273 413.111C480.602 413.06 488.864 412.362 495.888 414.498C502.553 416.525 505.706 424.745 503.032 430.921C501.252 435.033 498.239 436.093 494.391 437.573C489.66 444.778 488.769 457.511 488.049 466.081C491.838 468.024 501.367 471.674 497.059 477.121C496.014 478.441 490.49 478.352 488.522 478.581C489.688 485.425 489.441 491.592 492.393 498.309C493.231 500.213 494.245 503.036 494.775 505.006L494.882 505.404C495.641 505.802 496.395 506.215 497.143 506.641C499.994 508.281 503.363 511.328 503.946 514.715C504.288 516.705 503.99 518.95 504.571 521.137C514.428 523.086 531.191 519.483 541.457 521.709C543.352 522.121 542.01 527.568 538.736 527.45C536.951 527.386 533.932 527.422 532.018 527.417L515.684 527.336L462.731 527.453L276.28 527.795C258.256 528.095 239.266 527.837 221.186 527.851C185.608 528.12 150.028 528.008 114.453 527.509L70.5443 526.783L57.3835 526.685C54.3442 526.66 47.3797 527.753 48.1302 523.257C49.7205 521.342 54.9098 521.964 57.4297 521.973L76.2736 522.068C78.4937 522.099 83.6456 522.404 85.4627 522.096L85.6807 521.729C85.0947 520.633 83.0293 519.253 81.8253 517.866C78.8653 514.49 76.263 510.815 74.0595 506.901C65.7572 492.097 62.4858 471.447 65.8718 454.803C66.3547 452.428 67.6681 449.115 68.394 446.527C65.2056 446.732 59.7445 446.115 56.7234 445.151C46.2468 441.806 42.5489 430.413 46.2493 420.612C51.6833 406.223 66.4094 395.979 79.2888 388.609C81.6176 387.274 83.9301 385.797 86.3242 384.656C87.3999 382.573 89.6331 376.153 90.6186 373.563L99.8516 349.008L111.263 318.765C112.221 316.202 115.552 307.862 115.792 305.664C115.898 304.691 115.158 295.592 115.062 293.89L113.212 260.458L109.364 182.459L107.885 157.276C107.707 154.476 107.218 151.646 107.126 148.881C106.897 141.974 107.1 134.863 107.018 127.985C106.845 113.345 111.635 100.003 122.31 89.6957C129.348 82.9005 141.681 77.3352 151.294 75.2845C156.039 74.2722 161.368 75.0602 166.141 75.1639C172.834 75.2825 179.527 75.3503 186.222 75.3677C223.222 75.2648 260.223 75.4768 297.219 76.0041C299.382 73.7171 302.667 67.9331 304.287 65.0044C295.949 67.0304 284.388 72.2344 281.448 58.5885C280.52 54.2771 281.779 50.6091 284.127 47.0034C290.716 36.8876 304.582 35.7642 309.842 47.9338C311.064 50.7213 311.196 52.5244 311.572 55.5445C318.906 51.7064 331.381 41.8162 338.422 36.2843C341.878 33.5215 345.319 30.7363 348.739 27.9295C351.303 25.8426 352.64 24.2251 355.855 23.2856ZM90.8195 387.019C88.3144 389.36 83.8141 391.255 80.714 393.069C68.3915 400.274 52.1457 411.058 49.6675 426.191C52.0305 424.501 54.8223 422.976 57.3263 421.434C63.2401 417.781 69.2023 414.207 75.2119 410.711C79.115 408.404 82.9999 406.018 86.9391 403.786C88.2805 403.027 89.9683 403.172 91.2553 403.943C92.3058 405.712 90.8122 407.153 89.3475 408.14C85.9576 410.422 82.2942 412.398 78.758 414.467L62.3182 424.122C58.3162 426.427 53.5322 429.003 49.7275 431.453C51.3769 435.033 52.9994 437.377 56.4872 439.496C59.6285 437.996 64.8561 434.515 68.1031 432.611L97.0906 415.451C98.5584 414.879 102.083 413.73 102.444 416.183C102.559 416.965 102.025 418.131 101.439 418.67C98.2297 421.252 93.5592 423.492 89.9748 425.575L75.5466 433.903C71.8473 436.087 66.6815 439.272 62.8648 441.027C75.4605 441.094 86.5344 436.396 98.0209 431.711C106.144 428.445 114.211 425.039 122.217 421.498C127.375 419.242 132.538 416.629 137.958 415.042C140.281 414.364 143.653 414.577 146.095 414.495C161.832 413.982 177.905 414.38 193.603 413.884C190.553 403.102 175.726 402.194 166.346 401.642C163.965 401.502 161.08 402.04 159.459 399.923C159.159 396.307 161.234 385.971 161.916 381.858L167.129 349.821C168.83 339.199 170.294 328.436 172.174 317.842C172.765 314.509 173.09 310.52 173.911 307.338C171.402 304.134 169.157 300.859 166.736 297.607L147.17 271.26C145.468 268.962 140.227 261.184 138.469 259.536C137.45 261.178 135.939 265.594 135.206 267.557C133.224 272.733 131.307 277.934 129.455 283.158L117.881 314.388L99.0139 364.903C96.3698 371.976 93.1817 379.89 90.8195 387.019ZM344.055 397.089C337.83 397.372 331.151 397.557 324.974 398.087C329.17 402.256 330.992 408.723 333.946 413.301C334.831 414.675 352.637 413.907 355.174 414.165C361.418 414.565 368.089 414.167 374.238 414.529C369.117 407.613 367.907 403.136 360.392 396.926C355.619 396.8 348.845 396.868 344.055 397.089ZM295.714 44.3755C291.972 45.5437 289.307 47.6933 287.395 51.2525C285.554 54.6802 285.262 60.2977 289.293 62.324C291.266 63.3164 293.671 62.7395 295.756 62.3181C301.712 60.4766 308.071 60.1093 305.677 52.636C304.114 47.7567 301.549 43.2695 295.714 44.3755ZM269.087 478.105C269.279 481.261 268.553 486.627 267.901 489.722C293.505 487.805 319.509 484.469 345.143 482.307C351.045 481.808 358.136 481.603 363.899 480.547C361.567 479.42 358.08 477.345 355.743 476.053C350.914 473.423 346.121 470.732 341.365 467.973C339.977 464.573 339.888 455.03 339.094 450.401C336.233 433.046 330.944 413.531 320.24 399.351C318.578 397.148 295.787 398.628 292.339 398.726L243.52 400.164C257.496 409.388 269.233 439.586 269.091 455.997C268.509 463.107 268.259 471.018 269.087 478.105ZM215.74 413.553C227.08 413.399 238.135 413.343 249.485 412.979C245.71 408.524 239.886 401.019 233.787 400.638C231.027 400.467 226.422 400.652 223.57 400.762C217.306 400.966 211.137 401.008 204.88 401.134C199.756 401.235 195.036 401.645 189.853 401.44C195.981 404.913 197.363 406.769 199.271 413.503C205.444 413.915 210.152 413.349 215.74 413.553ZM367.469 396.346C383.947 415.118 392.705 444.032 395.477 468.629C395.923 472.599 395.623 475.498 396.649 479.61C401.424 479.504 406.186 479.195 410.923 478.57C417.896 477.648 424.981 477.611 431.952 476.857L464.141 474.511C472.519 473.832 480.77 472.902 489.186 472.809C484.73 469.428 474.332 464.875 469.091 462.03C466.54 460.645 462.908 459.7 460.094 457.887C458.687 436.558 439.387 405.393 424.247 389.938C423.779 389.461 423.244 389.374 422.596 389.385C408.353 394.664 392.842 396.136 377.733 396.186C374.148 396.2 371.104 396.528 367.469 396.346ZM455.559 229.399L455.512 229.852C455.105 233.865 455.349 241.696 455.425 245.903L455.565 264.294C455.601 267.66 456.142 277.947 454.73 280.599C447.88 293.472 434.115 298.796 420.082 297.386C417.815 297.15 415.575 296.705 413.392 296.054C407.529 294.347 381.183 284.201 377.186 287.706C376.668 288.16 376.676 288.535 376.741 289.183C376.968 291.468 379.238 293.147 380.99 294.355C382.907 295.653 384.933 296.786 387.044 297.736C389.799 298.964 398.773 301.714 399.392 304.703C400.354 309.359 390.738 307.139 388.47 307.116C378.223 306.707 367.097 303.393 357.217 307.167C355.294 307.935 352.228 310.971 350.849 312.395C354.815 312.575 359.725 313.732 363.666 314.531L378.229 317.399C382.391 318.229 400.757 321.147 402.969 323.429C404.791 329.011 394.376 325.787 391.979 325.341C383.989 323.872 376.02 322.311 368.066 320.657C362.354 319.437 354.154 317.436 348.467 316.895C348.052 318.88 346.482 327.304 348.018 328.153C351.23 329.931 363.991 332.173 368.596 333.572C368.728 333.589 368.857 333.603 368.988 333.62C378.378 335.666 387.663 338.145 397.021 340.309C401.071 341.245 399.757 345.672 398.204 345.358C381.783 342.022 365.432 337.567 349.123 333.67C350.734 336.81 351.651 339.367 353.638 342.395C359.717 351.654 371.273 358.525 381.662 361.873C402.702 368.64 425.57 366.756 445.217 356.63C454.598 351.825 460.677 346.513 467.039 337.934C488.001 309.665 484.716 273.045 466.627 244.293C465.147 241.94 457.356 230.077 455.559 229.399Z"/>
<path d="M90.8195 387.019C88.3144 389.36 83.8141 391.255 80.714 393.069C68.3915 400.274 52.1457 411.058 49.6675 426.191C52.0305 424.501 54.8223 422.976 57.3263 421.434C63.2401 417.781 69.2023 414.207 75.2119 410.711C79.115 408.404 82.9999 406.018 86.9391 403.786C88.2805 403.027 89.9683 403.172 91.2553 403.943C92.3058 405.712 90.8122 407.153 89.3475 408.14C85.9576 410.422 82.2942 412.398 78.758 414.467L62.3182 424.122C58.3162 426.427 53.5322 429.003 49.7275 431.453C51.3769 435.033 52.9994 437.377 56.4872 439.496C59.6285 437.996 64.8561 434.515 68.1031 432.611L97.0906 415.451C98.5584 414.879 102.083 413.73 102.444 416.183C102.559 416.965 102.025 418.131 101.439 418.67C98.2297 421.252 93.5592 423.492 89.9748 425.575L75.5466 433.903C71.8473 436.087 66.6815 439.272 62.8648 441.027C75.4605 441.094 86.5344 436.396 98.0209 431.711C106.144 428.445 114.211 425.039 122.217 421.498C127.375 419.242 132.538 416.629 137.958 415.042C140.281 414.364 143.653 414.577 146.095 414.495C161.832 413.982 177.905 414.38 193.603 413.884C190.553 403.102 175.726 402.194 166.346 401.642C163.965 401.502 161.08 402.04 159.459 399.923C159.159 396.307 161.234 385.971 161.916 381.858L167.129 349.821C168.83 339.199 170.294 328.436 172.174 317.842C172.765 314.509 173.09 310.52 173.911 307.338C171.402 304.134 169.157 300.859 166.736 297.607L147.17 271.26C145.468 268.962 140.227 261.184 138.469 259.536C137.45 261.178 135.939 265.594 135.206 267.557C133.224 272.733 131.307 277.934 129.455 283.158L117.881 314.388L99.0139 364.903C96.3698 371.976 93.1817 379.89 90.8195 387.019Z"/>
<path d="M269.087 478.105C269.279 481.261 268.553 486.627 267.901 489.722C293.505 487.805 319.509 484.469 345.143 482.307C351.045 481.808 358.136 481.603 363.899 480.547C361.567 479.42 358.08 477.345 355.743 476.053C350.914 473.423 346.121 470.732 341.365 467.973C339.977 464.573 339.888 455.03 339.094 450.401C336.233 433.046 330.944 413.531 320.24 399.351C318.578 397.148 295.787 398.628 292.339 398.726L243.52 400.164C257.496 409.388 269.233 439.586 269.091 455.997C268.509 463.107 268.259 471.018 269.087 478.105Z"/>
<path d="M367.469 396.346C383.947 415.118 392.705 444.032 395.477 468.629C395.923 472.599 395.623 475.498 396.649 479.61C401.424 479.504 406.186 479.195 410.923 478.57C417.896 477.648 424.981 477.611 431.952 476.857L464.141 474.511C472.519 473.832 480.77 472.902 489.186 472.809C484.73 469.428 474.332 464.875 469.091 462.03C466.54 460.645 462.908 459.7 460.094 457.887C458.687 436.558 439.387 405.393 424.247 389.938C423.779 389.461 423.244 389.374 422.596 389.385C408.353 394.664 392.842 396.136 377.733 396.186C374.148 396.2 371.104 396.528 367.469 396.346Z"/>
<path d="M455.559 229.399L455.512 229.852C455.105 233.865 455.349 241.696 455.425 245.903L455.565 264.294C455.601 267.66 456.142 277.947 454.73 280.599C447.88 293.472 434.115 298.796 420.082 297.386C417.815 297.15 415.575 296.705 413.392 296.054C407.529 294.347 381.183 284.201 377.186 287.706C376.668 288.16 376.676 288.535 376.741 289.183C376.968 291.468 379.238 293.147 380.99 294.355C382.907 295.653 384.933 296.786 387.044 297.736C389.799 298.964 398.773 301.714 399.392 304.703C400.354 309.359 390.738 307.139 388.47 307.116C378.223 306.707 367.097 303.393 357.217 307.167C355.294 307.935 352.228 310.971 350.849 312.395C354.815 312.575 359.725 313.732 363.666 314.531L378.229 317.399C382.391 318.229 400.757 321.147 402.969 323.429C404.791 329.011 394.376 325.787 391.979 325.341C383.989 323.872 376.02 322.311 368.066 320.657C362.354 319.437 354.154 317.436 348.467 316.895C348.052 318.88 346.482 327.304 348.018 328.153C351.23 329.931 363.991 332.173 368.596 333.572C368.728 333.589 368.857 333.603 368.988 333.62C378.378 335.666 387.663 338.145 397.021 340.309C401.071 341.245 399.757 345.672 398.204 345.358C381.783 342.022 365.432 337.567 349.123 333.67C350.734 336.81 351.651 339.367 353.638 342.395C359.717 351.654 371.273 358.525 381.662 361.873C402.702 368.64 425.57 366.756 445.217 356.63C454.598 351.825 460.677 346.513 467.039 337.934C488.001 309.665 484.716 273.045 466.627 244.293C465.147 241.94 457.356 230.077 455.559 229.399Z"/>
</mask>
<path d="M355.855 23.2856C357.102 23.4864 357.113 23.599 357.741 24.3673C357.862 24.9332 357.912 25.2932 357.772 25.8693C356.497 31.0873 316.272 58.7474 310.896 61.9038C308.517 68.124 307.323 70.5932 303.589 76.0815C313.2 75.8606 324.388 76.3172 334.153 76.4106L388.31 76.6741C408.3 76.754 426.683 80.1159 441.097 95.0306C452.852 107.193 453.289 120.238 453.625 136.004L454.065 161.014C454.329 181.18 455.077 201.372 454.934 221.552C477.451 244.954 492.429 280.565 484.273 313.104C480.411 328.526 470.54 345.966 457.373 355.243C451.145 359.63 450.063 358.951 447.804 367.194C445.099 374.37 434.743 382.352 428.191 386.394C432.734 391.216 446.307 406.985 447.911 413.001C451.605 412.959 455.36 413.197 459.144 413.161L473.273 413.111C480.602 413.06 488.864 412.362 495.888 414.498C502.553 416.525 505.706 424.745 503.032 430.921C501.252 435.033 498.239 436.093 494.391 437.573C489.66 444.778 488.769 457.511 488.049 466.081C491.838 468.024 501.367 471.674 497.059 477.121C496.014 478.441 490.49 478.352 488.522 478.581C489.688 485.425 489.441 491.592 492.393 498.309C493.231 500.213 494.245 503.036 494.775 505.006L494.882 505.404C495.641 505.802 496.395 506.215 497.143 506.641C499.994 508.281 503.363 511.328 503.946 514.715C504.288 516.705 503.99 518.95 504.571 521.137C514.428 523.086 531.191 519.483 541.457 521.709C543.352 522.121 542.01 527.568 538.736 527.45C536.951 527.386 533.932 527.422 532.018 527.417L515.684 527.336L462.731 527.453L276.28 527.795C258.256 528.095 239.266 527.837 221.186 527.851C185.608 528.12 150.028 528.008 114.453 527.509L70.5443 526.783L57.3835 526.685C54.3442 526.66 47.3797 527.753 48.1302 523.257C49.7205 521.342 54.9098 521.964 57.4297 521.973L76.2736 522.068C78.4937 522.099 83.6456 522.404 85.4627 522.096L85.6807 521.729C85.0947 520.633 83.0293 519.253 81.8253 517.866C78.8653 514.49 76.263 510.815 74.0595 506.901C65.7572 492.097 62.4858 471.447 65.8718 454.803C66.3547 452.428 67.6681 449.115 68.394 446.527C65.2056 446.732 59.7445 446.115 56.7234 445.151C46.2468 441.806 42.5489 430.413 46.2493 420.612C51.6833 406.223 66.4094 395.979 79.2888 388.609C81.6176 387.274 83.9301 385.797 86.3242 384.656C87.3999 382.573 89.6331 376.153 90.6186 373.563L99.8516 349.008L111.263 318.765C112.221 316.202 115.552 307.862 115.792 305.664C115.898 304.691 115.158 295.592 115.062 293.89L113.212 260.458L109.364 182.459L107.885 157.276C107.707 154.476 107.218 151.646 107.126 148.881C106.897 141.974 107.1 134.863 107.018 127.985C106.845 113.345 111.635 100.003 122.31 89.6957C129.348 82.9005 141.681 77.3352 151.294 75.2845C156.039 74.2722 161.368 75.0602 166.141 75.1639C172.834 75.2825 179.527 75.3503 186.222 75.3677C223.222 75.2648 260.223 75.4768 297.219 76.0041C299.382 73.7171 302.667 67.9331 304.287 65.0044C295.949 67.0304 284.388 72.2344 281.448 58.5885C280.52 54.2771 281.779 50.6091 284.127 47.0034C290.716 36.8876 304.582 35.7642 309.842 47.9338C311.064 50.7213 311.196 52.5244 311.572 55.5445C318.906 51.7064 331.381 41.8162 338.422 36.2843C341.878 33.5215 345.319 30.7363 348.739 27.9295C351.303 25.8426 352.64 24.2251 355.855 23.2856ZM90.8195 387.019C88.3144 389.36 83.8141 391.255 80.714 393.069C68.3915 400.274 52.1457 411.058 49.6675 426.191C52.0305 424.501 54.8223 422.976 57.3263 421.434C63.2401 417.781 69.2023 414.207 75.2119 410.711C79.115 408.404 82.9999 406.018 86.9391 403.786C88.2805 403.027 89.9683 403.172 91.2553 403.943C92.3058 405.712 90.8122 407.153 89.3475 408.14C85.9576 410.422 82.2942 412.398 78.758 414.467L62.3182 424.122C58.3162 426.427 53.5322 429.003 49.7275 431.453C51.3769 435.033 52.9994 437.377 56.4872 439.496C59.6285 437.996 64.8561 434.515 68.1031 432.611L97.0906 415.451C98.5584 414.879 102.083 413.73 102.444 416.183C102.559 416.965 102.025 418.131 101.439 418.67C98.2297 421.252 93.5592 423.492 89.9748 425.575L75.5466 433.903C71.8473 436.087 66.6815 439.272 62.8648 441.027C75.4605 441.094 86.5344 436.396 98.0209 431.711C106.144 428.445 114.211 425.039 122.217 421.498C127.375 419.242 132.538 416.629 137.958 415.042C140.281 414.364 143.653 414.577 146.095 414.495C161.832 413.982 177.905 414.38 193.603 413.884C190.553 403.102 175.726 402.194 166.346 401.642C163.965 401.502 161.08 402.04 159.459 399.923C159.159 396.307 161.234 385.971 161.916 381.858L167.129 349.821C168.83 339.199 170.294 328.436 172.174 317.842C172.765 314.509 173.09 310.52 173.911 307.338C171.402 304.134 169.157 300.859 166.736 297.607L147.17 271.26C145.468 268.962 140.227 261.184 138.469 259.536C137.45 261.178 135.939 265.594 135.206 267.557C133.224 272.733 131.307 277.934 129.455 283.158L117.881 314.388L99.0139 364.903C96.3698 371.976 93.1817 379.89 90.8195 387.019ZM344.055 397.089C337.83 397.372 331.151 397.557 324.974 398.087C329.17 402.256 330.992 408.723 333.946 413.301C334.831 414.675 352.637 413.907 355.174 414.165C361.418 414.565 368.089 414.167 374.238 414.529C369.117 407.613 367.907 403.136 360.392 396.926C355.619 396.8 348.845 396.868 344.055 397.089ZM295.714 44.3755C291.972 45.5437 289.307 47.6933 287.395 51.2525C285.554 54.6802 285.262 60.2977 289.293 62.324C291.266 63.3164 293.671 62.7395 295.756 62.3181C301.712 60.4766 308.071 60.1093 305.677 52.636C304.114 47.7567 301.549 43.2695 295.714 44.3755ZM269.087 478.105C269.279 481.261 268.553 486.627 267.901 489.722C293.505 487.805 319.509 484.469 345.143 482.307C351.045 481.808 358.136 481.603 363.899 480.547C361.567 479.42 358.08 477.345 355.743 476.053C350.914 473.423 346.121 470.732 341.365 467.973C339.977 464.573 339.888 455.03 339.094 450.401C336.233 433.046 330.944 413.531 320.24 399.351C318.578 397.148 295.787 398.628 292.339 398.726L243.52 400.164C257.496 409.388 269.233 439.586 269.091 455.997C268.509 463.107 268.259 471.018 269.087 478.105ZM215.74 413.553C227.08 413.399 238.135 413.343 249.485 412.979C245.71 408.524 239.886 401.019 233.787 400.638C231.027 400.467 226.422 400.652 223.57 400.762C217.306 400.966 211.137 401.008 204.88 401.134C199.756 401.235 195.036 401.645 189.853 401.44C195.981 404.913 197.363 406.769 199.271 413.503C205.444 413.915 210.152 413.349 215.74 413.553ZM367.469 396.346C383.947 415.118 392.705 444.032 395.477 468.629C395.923 472.599 395.623 475.498 396.649 479.61C401.424 479.504 406.186 479.195 410.923 478.57C417.896 477.648 424.981 477.611 431.952 476.857L464.141 474.511C472.519 473.832 480.77 472.902 489.186 472.809C484.73 469.428 474.332 464.875 469.091 462.03C466.54 460.645 462.908 459.7 460.094 457.887C458.687 436.558 439.387 405.393 424.247 389.938C423.779 389.461 423.244 389.374 422.596 389.385C408.353 394.664 392.842 396.136 377.733 396.186C374.148 396.2 371.104 396.528 367.469 396.346ZM455.559 229.399L455.512 229.852C455.105 233.865 455.349 241.696 455.425 245.903L455.565 264.294C455.601 267.66 456.142 277.947 454.73 280.599C447.88 293.472 434.115 298.796 420.082 297.386C417.815 297.15 415.575 296.705 413.392 296.054C407.529 294.347 381.183 284.201 377.186 287.706C376.668 288.16 376.676 288.535 376.741 289.183C376.968 291.468 379.238 293.147 380.99 294.355C382.907 295.653 384.933 296.786 387.044 297.736C389.799 298.964 398.773 301.714 399.392 304.703C400.354 309.359 390.738 307.139 388.47 307.116C378.223 306.707 367.097 303.393 357.217 307.167C355.294 307.935 352.228 310.971 350.849 312.395C354.815 312.575 359.725 313.732 363.666 314.531L378.229 317.399C382.391 318.229 400.757 321.147 402.969 323.429C404.791 329.011 394.376 325.787 391.979 325.341C383.989 323.872 376.02 322.311 368.066 320.657C362.354 319.437 354.154 317.436 348.467 316.895C348.052 318.88 346.482 327.304 348.018 328.153C351.23 329.931 363.991 332.173 368.596 333.572C368.728 333.589 368.857 333.603 368.988 333.62C378.378 335.666 387.663 338.145 397.021 340.309C401.071 341.245 399.757 345.672 398.204 345.358C381.783 342.022 365.432 337.567 349.123 333.67C350.734 336.81 351.651 339.367 353.638 342.395C359.717 351.654 371.273 358.525 381.662 361.873C402.702 368.64 425.57 366.756 445.217 356.63C454.598 351.825 460.677 346.513 467.039 337.934C488.001 309.665 484.716 273.045 466.627 244.293C465.147 241.94 457.356 230.077 455.559 229.399Z" fill="black"/>
<path d="M90.8195 387.019C88.3144 389.36 83.8141 391.255 80.714 393.069C68.3915 400.274 52.1457 411.058 49.6675 426.191C52.0305 424.501 54.8223 422.976 57.3263 421.434C63.2401 417.781 69.2023 414.207 75.2119 410.711C79.115 408.404 82.9999 406.018 86.9391 403.786C88.2805 403.027 89.9683 403.172 91.2553 403.943C92.3058 405.712 90.8122 407.153 89.3475 408.14C85.9576 410.422 82.2942 412.398 78.758 414.467L62.3182 424.122C58.3162 426.427 53.5322 429.003 49.7275 431.453C51.3769 435.033 52.9994 437.377 56.4872 439.496C59.6285 437.996 64.8561 434.515 68.1031 432.611L97.0906 415.451C98.5584 414.879 102.083 413.73 102.444 416.183C102.559 416.965 102.025 418.131 101.439 418.67C98.2297 421.252 93.5592 423.492 89.9748 425.575L75.5466 433.903C71.8473 436.087 66.6815 439.272 62.8648 441.027C75.4605 441.094 86.5344 436.396 98.0209 431.711C106.144 428.445 114.211 425.039 122.217 421.498C127.375 419.242 132.538 416.629 137.958 415.042C140.281 414.364 143.653 414.577 146.095 414.495C161.832 413.982 177.905 414.38 193.603 413.884C190.553 403.102 175.726 402.194 166.346 401.642C163.965 401.502 161.08 402.04 159.459 399.923C159.159 396.307 161.234 385.971 161.916 381.858L167.129 349.821C168.83 339.199 170.294 328.436 172.174 317.842C172.765 314.509 173.09 310.52 173.911 307.338C171.402 304.134 169.157 300.859 166.736 297.607L147.17 271.26C145.468 268.962 140.227 261.184 138.469 259.536C137.45 261.178 135.939 265.594 135.206 267.557C133.224 272.733 131.307 277.934 129.455 283.158L117.881 314.388L99.0139 364.903C96.3698 371.976 93.1817 379.89 90.8195 387.019Z" fill="white"/>
<path d="M269.087 478.105C269.279 481.261 268.553 486.627 267.901 489.722C293.505 487.805 319.509 484.469 345.143 482.307C351.045 481.808 358.136 481.603 363.899 480.547C361.567 479.42 358.08 477.345 355.743 476.053C350.914 473.423 346.121 470.732 341.365 467.973C339.977 464.573 339.888 455.03 339.094 450.401C336.233 433.046 330.944 413.531 320.24 399.351C318.578 397.148 295.787 398.628 292.339 398.726L243.52 400.164C257.496 409.388 269.233 439.586 269.091 455.997C268.509 463.107 268.259 471.018 269.087 478.105Z" fill="white"/>
<path d="M367.469 396.346C383.947 415.118 392.705 444.032 395.477 468.629C395.923 472.599 395.623 475.498 396.649 479.61C401.424 479.504 406.186 479.195 410.923 478.57C417.896 477.648 424.981 477.611 431.952 476.857L464.141 474.511C472.519 473.832 480.77 472.902 489.186 472.809C484.73 469.428 474.332 464.875 469.091 462.03C466.54 460.645 462.908 459.7 460.094 457.887C458.687 436.558 439.387 405.393 424.247 389.938C423.779 389.461 423.244 389.374 422.596 389.385C408.353 394.664 392.842 396.136 377.733 396.186C374.148 396.2 371.104 396.528 367.469 396.346Z" fill="white"/>
<path d="M455.559 229.399L455.512 229.852C455.105 233.865 455.349 241.696 455.425 245.903L455.565 264.294C455.601 267.66 456.142 277.947 454.73 280.599C447.88 293.472 434.115 298.796 420.082 297.386C417.815 297.15 415.575 296.705 413.392 296.054C407.529 294.347 381.183 284.201 377.186 287.706C376.668 288.16 376.676 288.535 376.741 289.183C376.968 291.468 379.238 293.147 380.99 294.355C382.907 295.653 384.933 296.786 387.044 297.736C389.799 298.964 398.773 301.714 399.392 304.703C400.354 309.359 390.738 307.139 388.47 307.116C378.223 306.707 367.097 303.393 357.217 307.167C355.294 307.935 352.228 310.971 350.849 312.395C354.815 312.575 359.725 313.732 363.666 314.531L378.229 317.399C382.391 318.229 400.757 321.147 402.969 323.429C404.791 329.011 394.376 325.787 391.979 325.341C383.989 323.872 376.02 322.311 368.066 320.657C362.354 319.437 354.154 317.436 348.467 316.895C348.052 318.88 346.482 327.304 348.018 328.153C351.23 329.931 363.991 332.173 368.596 333.572C368.728 333.589 368.857 333.603 368.988 333.62C378.378 335.666 387.663 338.145 397.021 340.309C401.071 341.245 399.757 345.672 398.204 345.358C381.783 342.022 365.432 337.567 349.123 333.67C350.734 336.81 351.651 339.367 353.638 342.395C359.717 351.654 371.273 358.525 381.662 361.873C402.702 368.64 425.57 366.756 445.217 356.63C454.598 351.825 460.677 346.513 467.039 337.934C488.001 309.665 484.716 273.045 466.627 244.293C465.147 241.94 457.356 230.077 455.559 229.399Z" fill="white"/>
<path d="M355.855 23.2856C357.102 23.4864 357.113 23.599 357.741 24.3673C357.862 24.9332 357.912 25.2932 357.772 25.8693C356.497 31.0873 316.272 58.7474 310.896 61.9038C308.517 68.124 307.323 70.5932 303.589 76.0815C313.2 75.8606 324.388 76.3172 334.153 76.4106L388.31 76.6741C408.3 76.754 426.683 80.1159 441.097 95.0306C452.852 107.193 453.289 120.238 453.625 136.004L454.065 161.014C454.329 181.18 455.077 201.372 454.934 221.552C477.451 244.954 492.429 280.565 484.273 313.104C480.411 328.526 470.54 345.966 457.373 355.243C451.145 359.63 450.063 358.951 447.804 367.194C445.099 374.37 434.743 382.352 428.191 386.394C432.734 391.216 446.307 406.985 447.911 413.001C451.605 412.959 455.36 413.197 459.144 413.161L473.273 413.111C480.602 413.06 488.864 412.362 495.888 414.498C502.553 416.525 505.706 424.745 503.032 430.921C501.252 435.033 498.239 436.093 494.391 437.573C489.66 444.778 488.769 457.511 488.049 466.081C491.838 468.024 501.367 471.674 497.059 477.121C496.014 478.441 490.49 478.352 488.522 478.581C489.688 485.425 489.441 491.592 492.393 498.309C493.231 500.213 494.245 503.036 494.775 505.006L494.882 505.404C495.641 505.802 496.395 506.215 497.143 506.641C499.994 508.281 503.363 511.328 503.946 514.715C504.288 516.705 503.99 518.95 504.571 521.137C514.428 523.086 531.191 519.483 541.457 521.709C543.352 522.121 542.01 527.568 538.736 527.45C536.951 527.386 533.932 527.422 532.018 527.417L515.684 527.336L462.731 527.453L276.28 527.795C258.256 528.095 239.266 527.837 221.186 527.851C185.608 528.12 150.028 528.008 114.453 527.509L70.5443 526.783L57.3835 526.685C54.3442 526.66 47.3797 527.753 48.1302 523.257C49.7205 521.342 54.9098 521.964 57.4297 521.973L76.2736 522.068C78.4937 522.099 83.6456 522.404 85.4627 522.096L85.6807 521.729C85.0947 520.633 83.0293 519.253 81.8253 517.866C78.8653 514.49 76.263 510.815 74.0595 506.901C65.7572 492.097 62.4858 471.447 65.8718 454.803C66.3547 452.428 67.6681 449.115 68.394 446.527C65.2056 446.732 59.7445 446.115 56.7234 445.151C46.2468 441.806 42.5489 430.413 46.2493 420.612C51.6833 406.223 66.4094 395.979 79.2888 388.609C81.6176 387.274 83.9301 385.797 86.3242 384.656C87.3999 382.573 89.6331 376.153 90.6186 373.563L99.8516 349.008L111.263 318.765C112.221 316.202 115.552 307.862 115.792 305.664C115.898 304.691 115.158 295.592 115.062 293.89L113.212 260.458L109.364 182.459L107.885 157.276C107.707 154.476 107.218 151.646 107.126 148.881C106.897 141.974 107.1 134.863 107.018 127.985C106.845 113.345 111.635 100.003 122.31 89.6957C129.348 82.9005 141.681 77.3352 151.294 75.2845C156.039 74.2722 161.368 75.0602 166.141 75.1639C172.834 75.2825 179.527 75.3503 186.222 75.3677C223.222 75.2648 260.223 75.4768 297.219 76.0041C299.382 73.7171 302.667 67.9331 304.287 65.0044C295.949 67.0304 284.388 72.2344 281.448 58.5885C280.52 54.2771 281.779 50.6091 284.127 47.0034C290.716 36.8876 304.582 35.7642 309.842 47.9338C311.064 50.7213 311.196 52.5244 311.572 55.5445C318.906 51.7064 331.381 41.8162 338.422 36.2843C341.878 33.5215 345.319 30.7363 348.739 27.9295C351.303 25.8426 352.64 24.2251 355.855 23.2856ZM90.8195 387.019C88.3144 389.36 83.8141 391.255 80.714 393.069C68.3915 400.274 52.1457 411.058 49.6675 426.191C52.0305 424.501 54.8223 422.976 57.3263 421.434C63.2401 417.781 69.2023 414.207 75.2119 410.711C79.115 408.404 82.9999 406.018 86.9391 403.786C88.2805 403.027 89.9683 403.172 91.2553 403.943C92.3058 405.712 90.8122 407.153 89.3475 408.14C85.9576 410.422 82.2942 412.398 78.758 414.467L62.3182 424.122C58.3162 426.427 53.5322 429.003 49.7275 431.453C51.3769 435.033 52.9994 437.377 56.4872 439.496C59.6285 437.996 64.8561 434.515 68.1031 432.611L97.0906 415.451C98.5584 414.879 102.083 413.73 102.444 416.183C102.559 416.965 102.025 418.131 101.439 418.67C98.2297 421.252 93.5592 423.492 89.9748 425.575L75.5466 433.903C71.8473 436.087 66.6815 439.272 62.8648 441.027C75.4605 441.094 86.5344 436.396 98.0209 431.711C106.144 428.445 114.211 425.039 122.217 421.498C127.375 419.242 132.538 416.629 137.958 415.042C140.281 414.364 143.653 414.577 146.095 414.495C161.832 413.982 177.905 414.38 193.603 413.884C190.553 403.102 175.726 402.194 166.346 401.642C163.965 401.502 161.08 402.04 159.459 399.923C159.159 396.307 161.234 385.971 161.916 381.858L167.129 349.821C168.83 339.199 170.294 328.436 172.174 317.842C172.765 314.509 173.09 310.52 173.911 307.338C171.402 304.134 169.157 300.859 166.736 297.607L147.17 271.26C145.468 268.962 140.227 261.184 138.469 259.536C137.45 261.178 135.939 265.594 135.206 267.557C133.224 272.733 131.307 277.934 129.455 283.158L117.881 314.388L99.0139 364.903C96.3698 371.976 93.1817 379.89 90.8195 387.019ZM344.055 397.089C337.83 397.372 331.151 397.557 324.974 398.087C329.17 402.256 330.992 408.723 333.946 413.301C334.831 414.675 352.637 413.907 355.174 414.165C361.418 414.565 368.089 414.167 374.238 414.529C369.117 407.613 367.907 403.136 360.392 396.926C355.619 396.8 348.845 396.868 344.055 397.089ZM295.714 44.3755C291.972 45.5437 289.307 47.6933 287.395 51.2525C285.554 54.6802 285.262 60.2977 289.293 62.324C291.266 63.3164 293.671 62.7395 295.756 62.3181C301.712 60.4766 308.071 60.1093 305.677 52.636C304.114 47.7567 301.549 43.2695 295.714 44.3755ZM269.087 478.105C269.279 481.261 268.553 486.627 267.901 489.722C293.505 487.805 319.509 484.469 345.143 482.307C351.045 481.808 358.136 481.603 363.899 480.547C361.567 479.42 358.08 477.345 355.743 476.053C350.914 473.423 346.121 470.732 341.365 467.973C339.977 464.573 339.888 455.03 339.094 450.401C336.233 433.046 330.944 413.531 320.24 399.351C318.578 397.148 295.787 398.628 292.339 398.726L243.52 400.164C257.496 409.388 269.233 439.586 269.091 455.997C268.509 463.107 268.259 471.018 269.087 478.105ZM215.74 413.553C227.08 413.399 238.135 413.343 249.485 412.979C245.71 408.524 239.886 401.019 233.787 400.638C231.027 400.467 226.422 400.652 223.57 400.762C217.306 400.966 211.137 401.008 204.88 401.134C199.756 401.235 195.036 401.645 189.853 401.44C195.981 404.913 197.363 406.769 199.271 413.503C205.444 413.915 210.152 413.349 215.74 413.553ZM367.469 396.346C383.947 415.118 392.705 444.032 395.477 468.629C395.923 472.599 395.623 475.498 396.649 479.61C401.424 479.504 406.186 479.195 410.923 478.57C417.896 477.648 424.981 477.611 431.952 476.857L464.141 474.511C472.519 473.832 480.77 472.902 489.186 472.809C484.73 469.428 474.332 464.875 469.091 462.03C466.54 460.645 462.908 459.7 460.094 457.887C458.687 436.558 439.387 405.393 424.247 389.938C423.779 389.461 423.244 389.374 422.596 389.385C408.353 394.664 392.842 396.136 377.733 396.186C374.148 396.2 371.104 396.528 367.469 396.346ZM455.559 229.399L455.512 229.852C455.105 233.865 455.349 241.696 455.425 245.903L455.565 264.294C455.601 267.66 456.142 277.947 454.73 280.599C447.88 293.472 434.115 298.796 420.082 297.386C417.815 297.15 415.575 296.705 413.392 296.054C407.529 294.347 381.183 284.201 377.186 287.706C376.668 288.16 376.676 288.535 376.741 289.183C376.968 291.468 379.238 293.147 380.99 294.355C382.907 295.653 384.933 296.786 387.044 297.736C389.799 298.964 398.773 301.714 399.392 304.703C400.354 309.359 390.738 307.139 388.47 307.116C378.223 306.707 367.097 303.393 357.217 307.167C355.294 307.935 352.228 310.971 350.849 312.395C354.815 312.575 359.725 313.732 363.666 314.531L378.229 317.399C382.391 318.229 400.757 321.147 402.969 323.429C404.791 329.011 394.376 325.787 391.979 325.341C383.989 323.872 376.02 322.311 368.066 320.657C362.354 319.437 354.154 317.436 348.467 316.895C348.052 318.88 346.482 327.304 348.018 328.153C351.23 329.931 363.991 332.173 368.596 333.572C368.728 333.589 368.857 333.603 368.988 333.62C378.378 335.666 387.663 338.145 397.021 340.309C401.071 341.245 399.757 345.672 398.204 345.358C381.783 342.022 365.432 337.567 349.123 333.67C350.734 336.81 351.651 339.367 353.638 342.395C359.717 351.654 371.273 358.525 381.662 361.873C402.702 368.64 425.57 366.756 445.217 356.63C454.598 351.825 460.677 346.513 467.039 337.934C488.001 309.665 484.716 273.045 466.627 244.293C465.147 241.94 457.356 230.077 455.559 229.399Z" stroke="black" stroke-width="2" mask="url(#path-1-inside-1_1_4)"/>
<path d="M90.8195 387.019C88.3144 389.36 83.8141 391.255 80.714 393.069C68.3915 400.274 52.1457 411.058 49.6675 426.191C52.0305 424.501 54.8223 422.976 57.3263 421.434C63.2401 417.781 69.2023 414.207 75.2119 410.711C79.115 408.404 82.9999 406.018 86.9391 403.786C88.2805 403.027 89.9683 403.172 91.2553 403.943C92.3058 405.712 90.8122 407.153 89.3475 408.14C85.9576 410.422 82.2942 412.398 78.758 414.467L62.3182 424.122C58.3162 426.427 53.5322 429.003 49.7275 431.453C51.3769 435.033 52.9994 437.377 56.4872 439.496C59.6285 437.996 64.8561 434.515 68.1031 432.611L97.0906 415.451C98.5584 414.879 102.083 413.73 102.444 416.183C102.559 416.965 102.025 418.131 101.439 418.67C98.2297 421.252 93.5592 423.492 89.9748 425.575L75.5466 433.903C71.8473 436.087 66.6815 439.272 62.8648 441.027C75.4605 441.094 86.5344 436.396 98.0209 431.711C106.144 428.445 114.211 425.039 122.217 421.498C127.375 419.242 132.538 416.629 137.958 415.042C140.281 414.364 143.653 414.577 146.095 414.495C161.832 413.982 177.905 414.38 193.603 413.884C190.553 403.102 175.726 402.194 166.346 401.642C163.965 401.502 161.08 402.04 159.459 399.923C159.159 396.307 161.234 385.971 161.916 381.858L167.129 349.821C168.83 339.199 170.294 328.436 172.174 317.842C172.765 314.509 173.09 310.52 173.911 307.338C171.402 304.134 169.157 300.859 166.736 297.607L147.17 271.26C145.468 268.962 140.227 261.184 138.469 259.536C137.45 261.178 135.939 265.594 135.206 267.557C133.224 272.733 131.307 277.934 129.455 283.158L117.881 314.388L99.0139 364.903C96.3698 371.976 93.1817 379.89 90.8195 387.019Z" stroke="black" stroke-width="2" mask="url(#path-1-inside-1_1_4)"/>
<path d="M269.087 478.105C269.279 481.261 268.553 486.627 267.901 489.722C293.505 487.805 319.509 484.469 345.143 482.307C351.045 481.808 358.136 481.603 363.899 480.547C361.567 479.42 358.08 477.345 355.743 476.053C350.914 473.423 346.121 470.732 341.365 467.973C339.977 464.573 339.888 455.03 339.094 450.401C336.233 433.046 330.944 413.531 320.24 399.351C318.578 397.148 295.787 398.628 292.339 398.726L243.52 400.164C257.496 409.388 269.233 439.586 269.091 455.997C268.509 463.107 268.259 471.018 269.087 478.105Z" stroke="black" stroke-width="2" mask="url(#path-1-inside-1_1_4)"/>
<path d="M367.469 396.346C383.947 415.118 392.705 444.032 395.477 468.629C395.923 472.599 395.623 475.498 396.649 479.61C401.424 479.504 406.186 479.195 410.923 478.57C417.896 477.648 424.981 477.611 431.952 476.857L464.141 474.511C472.519 473.832 480.77 472.902 489.186 472.809C484.73 469.428 474.332 464.875 469.091 462.03C466.54 460.645 462.908 459.7 460.094 457.887C458.687 436.558 439.387 405.393 424.247 389.938C423.779 389.461 423.244 389.374 422.596 389.385C408.353 394.664 392.842 396.136 377.733 396.186C374.148 396.2 371.104 396.528 367.469 396.346Z" stroke="black" stroke-width="2" mask="url(#path-1-inside-1_1_4)"/>
<path d="M455.559 229.399L455.512 229.852C455.105 233.865 455.349 241.696 455.425 245.903L455.565 264.294C455.601 267.66 456.142 277.947 454.73 280.599C447.88 293.472 434.115 298.796 420.082 297.386C417.815 297.15 415.575 296.705 413.392 296.054C407.529 294.347 381.183 284.201 377.186 287.706C376.668 288.16 376.676 288.535 376.741 289.183C376.968 291.468 379.238 293.147 380.99 294.355C382.907 295.653 384.933 296.786 387.044 297.736C389.799 298.964 398.773 301.714 399.392 304.703C400.354 309.359 390.738 307.139 388.47 307.116C378.223 306.707 367.097 303.393 357.217 307.167C355.294 307.935 352.228 310.971 350.849 312.395C354.815 312.575 359.725 313.732 363.666 314.531L378.229 317.399C382.391 318.229 400.757 321.147 402.969 323.429C404.791 329.011 394.376 325.787 391.979 325.341C383.989 323.872 376.02 322.311 368.066 320.657C362.354 319.437 354.154 317.436 348.467 316.895C348.052 318.88 346.482 327.304 348.018 328.153C351.23 329.931 363.991 332.173 368.596 333.572C368.728 333.589 368.857 333.603 368.988 333.62C378.378 335.666 387.663 338.145 397.021 340.309C401.071 341.245 399.757 345.672 398.204 345.358C381.783 342.022 365.432 337.567 349.123 333.67C350.734 336.81 351.651 339.367 353.638 342.395C359.717 351.654 371.273 358.525 381.662 361.873C402.702 368.64 425.57 366.756 445.217 356.63C454.598 351.825 460.677 346.513 467.039 337.934C488.001 309.665 484.716 273.045 466.627 244.293C465.147 241.94 457.356 230.077 455.559 229.399Z" stroke="black" stroke-width="2" mask="url(#path-1-inside-1_1_4)"/>
<path d="M154.616 79.7026C158.54 79.3735 164.431 79.6432 168.486 79.7494C173.718 79.8896 178.952 79.9544 184.186 79.9434C211.6 80.1097 238.925 80.9824 266.356 81.0076C270.656 80.9936 274.955 81.0219 279.254 81.0923C283.878 81.2072 289.371 81.7152 293.805 80.8988C288.965 85.6397 284.848 90.9508 279.608 95.4373C274.072 100.179 268.078 103.883 262.42 108.419C261.669 109.021 261.087 109.796 260.844 110.727C260.972 111.153 260.939 111.383 261.267 111.651C264.64 114.086 268.564 110.019 271.198 108.249C282.594 100.591 291.156 91.6538 300.016 81.2367C302.053 81.6423 306.258 81.5302 308.444 81.5299L321.471 81.5389L369.902 81.9922L387.377 82.18C393.692 82.2212 401.077 82.0126 407.271 83.1833C420.379 85.7765 433.813 91.7946 441.355 103.331C448.44 114.166 448.44 124.647 448.569 136.858L448.718 158.069C448.886 183.845 449.836 209.648 449.43 235.445C449.393 237.861 449.326 240.975 449.48 243.336C450.052 252.222 450.057 261.073 450.142 269.973C450.178 272.84 450.043 276.36 450.425 279.152C441.764 290.142 434.6 293.467 420.377 292.306C421.677 288.656 422.675 283.994 423.754 280.177C424.614 276.582 425.884 273.094 426.814 269.52C432.451 247.894 411.237 251.268 397.815 251.603L377.469 252.015C371.452 252.097 365.712 251.782 359.644 251.719C355.333 251.462 350.364 252.167 346.157 251.568C339.372 250.602 334.464 256.922 332.393 262.782C330.227 268.911 328.671 275.561 326.908 281.925L316.017 321.543C314.528 326.939 313.105 332.283 311.426 337.716C309.088 345.285 304.268 354.665 309.492 362.167C312.396 366.336 317.909 367.664 322.656 368.416C324.756 368.472 326.617 368.59 328.702 368.797C341.796 370.095 354.832 370.989 367.935 372.441C376.161 373.353 385.611 373.692 393.829 373.252C394.9 373.196 397.391 371.138 398.297 370.409C413.628 372.638 429.97 368.144 444.158 362.764C438.387 377.059 420.772 386.046 406.405 388.844C398.58 390.366 391.122 389.924 383.204 390.181L341.093 391.575L232.969 395.404L182.657 396.943C177.045 397.089 169.994 396.486 164.811 396.848L164.398 396.879C165.054 393.885 165.486 389.287 166.009 386.074L170.788 355.904L176.012 324.399C176.876 319.174 178.719 310.172 178.492 305.261C176.376 301.916 173.78 299.079 171.501 295.911C168.017 291.07 164.57 286.357 160.946 281.614C154.369 272.983 147.968 264.205 141.358 255.601C138.525 251.913 136.686 252.783 134.921 256.756C132.813 261.501 131.016 266.485 129.183 271.353C126.219 279.225 123.064 287.086 120.239 295.006C119.765 278.326 118.567 261.664 117.606 245.039L114.262 186.106C113.239 169.34 111.683 152.249 111.957 135.479C112.096 130.391 111.952 125.161 112.649 120.111C115.768 97.5312 133.081 83.7821 154.616 79.7026Z" fill="#C5F900"/>
<path d="M236.205 141.416C247.331 140.666 258.378 143.743 267.515 150.137C276.567 156.406 284.021 166.373 286.159 177.291C286.602 179.558 287.006 181.846 287.409 184.122C288.214 184.203 292.202 183.176 293.455 182.964C300.638 181.747 306.045 182.154 313.026 183.868C313.794 174.84 314.8 169.86 319.551 161.921C325.036 152.695 336.381 144.835 346.942 142.749C371.884 137.823 393.961 154.148 399.079 178.253C403.386 175.905 408.126 174.261 412.605 172.287C420.906 168.625 430.032 165.172 438.14 161.229C440.276 162.487 443.227 164.967 439.413 166.72C435.167 168.672 430.685 170.318 426.338 172.06C417.403 175.693 408.445 179.271 399.468 182.796C400.264 207.979 382.573 225.913 357.699 227.171C342.404 226.895 329.257 220.177 320.571 207.538C316.275 201.29 314.904 196.255 313.259 189.066C306.302 186.222 292.617 185.396 286.608 190.587C285.977 211.371 265.415 226.351 245.797 227.325C232.466 227.861 219.459 223.13 209.585 214.154C199.599 205.073 195.72 194.328 195.151 181.226C190.035 180.593 185.049 179.555 179.956 178.69C168.216 176.697 156.395 174.89 144.684 172.759C143.423 172.529 141.042 171.883 140.211 170.953C139.635 169.004 141.186 168.313 142.68 167.39C154.393 169.416 166.132 171.282 177.895 172.988C183.866 173.902 189.637 174.414 195.51 175.804C197.744 168.166 199.991 161.798 205.609 155.96C214.197 147.037 223.902 142.005 236.205 141.416Z" fill="black"/>
<path d="M235.429 146.736C246.546 145.942 257.563 149.31 266.337 156.185C282.039 168.306 287.129 190.969 274.176 206.999C266.367 216.664 257.691 219.924 245.734 221.243C245.632 221.253 245.529 221.263 245.427 221.273C213.13 223.648 186.631 188.408 207.897 160.354C214.426 151.741 225 147.897 235.429 146.736Z" fill="#C5F900"/>
<path d="M247.581 177.585C251.854 177.614 256.374 177.66 260.37 179.387C263.292 180.65 269.297 183.047 267.534 187.048C267.139 187.421 265.767 188.294 265.462 188.12C258.723 184.278 255.692 182.031 247.44 182.248C240.456 183.221 236.513 184.704 232.176 189.839C231.479 190.664 229.437 190.159 228.604 189.112C228.309 186.251 232.843 182.583 235.124 181.208C239.091 178.816 243.081 178.156 247.581 177.585Z" fill="black"/>
<path d="M246.493 195.209C250.24 195.529 253.165 197.669 253.816 201.558C254.084 203.212 253.69 204.905 252.72 206.27C251.397 208.119 249.881 208.674 247.765 209.072C244.079 208.913 241.097 207.816 240.14 203.779C239.696 201.915 240.06 199.95 241.144 198.369C242.498 196.396 244.215 195.589 246.493 195.209Z" fill="black"/>
<path d="M350.905 147.219C371.348 144.41 390.205 158.695 393.041 179.141C395.875 199.587 381.618 218.466 361.18 221.328C340.706 224.195 321.79 209.902 318.948 189.419C316.109 168.935 330.423 150.033 350.905 147.219Z" fill="#C5F900"/>
<path d="M351.463 176.456C358.217 176.142 363.761 177.681 369.157 181.928C370.398 182.906 372.604 184.654 373.237 186.107C374.541 189.091 372.335 189.902 370.143 190.809C369.409 189.914 368.66 189.028 367.904 188.151C363.84 183.54 359.798 181.649 353.775 181.266C347.789 181.038 343.032 183.084 338.441 186.836C336.524 188.403 335.185 191.15 332.533 190.513C330.566 189.13 331.311 187.533 332.626 186.024C337.517 180.411 344.114 177.257 351.463 176.456Z" fill="black"/>
<path d="M351.323 195.836C352.051 195.802 354.417 197.052 355.039 197.575C356.474 198.784 357.343 200.608 357.478 202.467C357.615 204.456 356.934 206.414 355.594 207.888C353.697 209.987 351.424 210.501 348.764 210.675C348.374 210.565 347.987 210.445 347.604 210.314C344.24 209.144 343.299 207.052 341.83 204.117C343.388 198.694 345.417 196.116 351.323 195.836Z" fill="black"/>
<path d="M277.975 341.231C279.531 341.64 280.27 342.98 280.111 344.517C278.335 347.343 269.968 349.7 266.601 350.998C260.817 353.28 255.049 355.601 249.297 357.962L223.676 368.292C218.586 370.333 212.522 372.943 207.385 374.482C206.205 374.076 206.262 374.11 205.352 373.254C205.134 372.68 204.881 372.366 205.266 371.724C205.766 370.888 207.111 370.162 207.989 369.798C224.593 362.904 241.348 356.078 257.996 349.311C261.246 347.99 275.887 341.624 277.975 341.231Z" fill="black"/>
<path d="M224.598 292.051C227.45 292.014 238.525 294.658 242.162 295.415C256.288 298.23 270.387 301.179 284.455 304.265C290.966 305.647 297.608 306.738 304.018 308.47C305.563 308.885 305.268 311.277 304.612 312.404C303.682 312.687 302.611 313.046 301.658 312.847C297.83 312.048 293.928 311.153 290.114 310.307C282.824 308.681 275.522 307.094 268.213 305.549C258.735 303.531 249.268 301.462 239.813 299.337C235.248 298.316 230.625 297.372 226.11 296.166C224.128 295.636 224.022 293.682 224.598 292.051Z" fill="black"/>
<path d="M274.634 244.98C275.951 244.881 276.454 245.632 277.272 246.573C280.411 250.183 283.384 253.942 286.518 257.557C293.172 265.101 299.761 272.698 306.294 280.347C307.112 281.319 309.021 283.512 308.912 284.728C308.312 285.662 307.46 285.953 306.448 286.483L306.059 286.45C304.775 285.71 272.845 249.535 272.356 248.153C272.116 247.49 272.185 246.755 272.544 246.148C273.071 245.271 273.751 245.243 274.634 244.98Z" fill="black"/>
<path d="M316.838 214.098L317.808 214.269C322.485 217.611 318.099 220.465 315.313 222.488C304.61 230.265 291.95 229.447 281.605 221.539C280.001 220.225 277.27 217.729 279.053 215.53C282 214.758 284.262 217.788 286.633 219.215C292.485 222.742 299.467 223.871 305.966 221.508C310.436 219.883 313.351 217.157 316.838 214.098Z" fill="black"/>
<path d="M182.702 418.987C188.788 418.684 194.801 418.874 200.904 418.779C193.735 422.353 187.278 430.113 183.338 437.049C174.18 453.174 172.719 472.747 177.68 490.451C181.121 502.73 189.554 516.195 201.01 522.502C191.841 522.741 182.245 522.64 173.027 522.746C153.244 523.1 133.456 523.029 113.676 522.539C110.283 522.659 96.0875 522.679 93.8734 521.541C84.3687 516.307 77.4606 504.678 73.9546 494.782C67.8595 477.578 68.0142 461.61 75.5253 445.064C84.3847 443.225 94.9765 438.779 103.421 435.372C110.008 432.718 116.616 429.824 123.192 427.108C129.026 424.697 136.743 420.764 142.733 419.497C145.763 418.855 153.544 419.034 156.932 419.031C165.522 419.093 174.112 419.076 182.702 418.987Z" fill="#BE96FE"/>
<path d="M219.674 418.661C230.541 418.123 242.075 418.844 252.901 418.687C255.514 423.755 257.485 427.994 259.806 433.208C251.025 432.586 237.626 432.869 229.016 433.859C223.593 435.143 214.771 437.831 210.472 441.226C195.235 453.255 192.929 481.547 204.719 496.386C216.59 511.328 236.277 510.052 253.077 510.019L286.383 509.988L421.576 510.308L462.888 509.94C470.383 509.803 482.564 509.068 489.624 510.027C497.48 511.35 499.111 513.551 498.979 521.359C474.511 521.723 449.542 521.437 425.046 521.493L301.975 521.998L238.102 522.326C233.646 522.306 229.19 522.331 224.734 522.407C214.263 522.609 209.608 522.985 200.4 516.108C171.641 494.625 173.531 436.401 207.894 421.268C211.483 419.687 215.706 419.155 219.674 418.661Z" fill="#BE96FE"/>
<path d="M365.025 256.949C372.579 256.351 384.328 256.908 392.17 256.947C396.96 256.981 401.75 256.986 406.539 256.959C412.733 256.904 417.767 255.506 422.153 260.493C423.045 266.296 420.562 272.669 419.152 278.3C418.07 282.623 416.98 287.265 415.592 291.459C408.235 288.165 386.43 281.925 378.546 281.37C374.664 283.534 374.93 281.207 371.553 286.206C370.9 294.795 375.269 297.703 382.058 301.507C372.795 300.57 363.7 298.249 354.512 302.942C349.392 305.558 344.792 312.006 343.399 317.548C340.916 327.419 344.173 335.596 348.971 343.956C355.824 354.612 365.014 360.028 376.444 365.122C379.375 366.428 383.238 367.314 386.511 368.662C370.564 366.697 354.336 366.765 338.425 364.536C335.756 364.16 325.56 364.69 325.972 359.425C326.502 352.661 329.24 345.021 331.087 338.369L340.151 306.076L346.533 282.909C349.445 272.283 351.328 257.354 365.025 256.949Z" fill="#8E8D8D"/>
<path d="M363.187 263.43C367.629 263.116 371.48 266.478 371.769 270.924C372.057 275.371 368.674 279.203 364.227 279.466C362.102 279.592 360.014 278.869 358.422 277.456C356.003 275.31 355.106 271.923 356.146 268.86C357.186 265.799 359.961 263.658 363.187 263.43Z" fill="black"/>
<path d="M363.072 268.495C367.181 268.383 367.895 272.508 364.117 274.268C359.622 274.108 358.994 270.577 363.072 268.495Z" fill="#FEF7AC"/>
<path d="M264.031 482.352L264.172 482.374C266.147 484.469 259.923 489.68 267.063 494.544C269.912 494.6 273.053 494.095 275.938 493.93C285.217 493.4 294.27 492.094 303.559 492.397C311.888 492.669 318.744 494.723 326.757 495.831C340.983 497.891 355.356 498.769 369.726 498.455C380.359 498.236 391.999 496.299 402.666 495.682C411.719 495.158 421.083 494.939 430.161 494.718C448.723 494.264 467.883 493.4 486.356 495.085C487.079 498.41 488.183 501.642 489.649 504.712C472.101 504.227 453.429 504.653 435.755 504.6C426.475 504.746 417.061 504.636 407.759 504.692L309.621 504.964C303.351 504.984 297.123 505.113 290.865 505.155C286.274 505.186 281.717 504.919 277.046 505.02C262.96 505.32 248.709 505.444 234.641 504.732C229.978 504.496 222.766 502.909 218.556 500.894C211.536 497.532 207.058 491.973 204.508 484.721C214.035 484.469 222.554 483.577 232.015 482.733C238.94 482.114 246.788 482.994 253.755 482.918C257.153 482.885 260.641 482.601 264.031 482.352Z" fill="#FEFEFE"/>
<path d="M344.56 457.012C357.643 458.254 371.09 458.84 384.176 457.536C385.625 457.39 387.058 457.261 388.512 457.152C389.16 460.127 389.678 463.126 390.073 466.145C390.471 469.28 391.281 482.33 392.346 483.956C396.152 485.161 419.866 483.095 425.315 482.7L454.861 480.667C464.531 480.042 474.203 479.49 483.881 479.01C484.057 482.447 484.604 486.801 484.915 490.33C469.374 488.808 451.952 489.624 436.316 490.039C426.543 490.263 416.781 490.375 407.013 490.745C397.394 491.11 387.868 492.615 378.336 493.271C369.011 493.832 359.664 493.936 350.331 493.582C341.056 493.263 330.678 491.477 321.342 490.364C327.351 489.1 334.632 489.139 340.768 488.5C349.176 487.698 357.646 486.784 366.074 486.322C368.131 486.078 373.26 486.162 374.089 483.838C375.779 479.111 364.232 475.08 360.863 473.148C356.157 470.449 350.451 467.129 345.605 465.069C345.218 462.022 345.23 460.138 344.56 457.012Z" fill="#FEFEFE"/>
<path d="M249.446 438.03C253.218 438.016 257.522 437.859 261.221 438.209C262.735 442.193 264.494 453.553 264.579 457.915C258.813 458.573 253.954 458.458 248.199 458.576L219.797 458.971C214.699 459.19 209.52 459.468 204.424 459.468C207.097 451.943 209.706 447.021 217.123 443.326C227.437 438.19 238.248 438.117 249.446 438.03Z" fill="#FEFEFE"/>
<path d="M263.62 462.689L264.524 462.641C265.625 464.172 264.877 475.122 264.766 477.637C251.068 479.047 237.821 477.311 224.22 478.879C217.482 479.652 211.033 480.224 204.251 480.266C203.63 480.356 203.859 480.362 203.253 480.207C201.854 477.468 202.486 466.891 203.314 463.589C210.048 464.189 216.524 463.468 223.237 463.454C236.413 463.432 250.506 463.737 263.62 462.689Z" fill="#FEFEFE"/>
<path d="M336.255 418.782C348.96 418.616 363.369 419.401 376.337 419.491C377.327 421.655 381.875 432.031 382.167 433.87L381.676 434.097C368.63 434.882 354.411 433.982 341.208 434.596C339.941 429.502 337.76 423.934 336.255 418.782Z" fill="#BE96FE"/>
<path d="M451.243 418.045C457.922 417.997 464.604 418.092 471.28 418.322C477.465 418.524 483.368 419.009 489.534 418.314C492.23 418.151 494.512 418.471 496.432 420.52C499.086 423.346 500.126 427.514 497.242 430.489C492.412 433.323 481.804 432.959 476.022 432.967L458.258 432.973C456.425 427.635 454.001 422.939 451.243 418.045Z" fill="#BE96FE"/>
<path d="M329.139 291.636C330.154 293.472 334.299 298.832 336.011 299.942L336.558 300.018C336.328 301.644 334.159 308.541 333.559 310.593L325.204 340.11C323.57 345.958 319.711 356.353 321.527 362.217C316.233 361.418 311.157 360.277 312.269 353.227C313.068 348.161 315.19 343.216 316.521 338.201L329.139 291.636Z" fill="#BBBABA"/>
<path d="M354.708 439.429C358.624 439.292 363.635 439.527 367.671 439.538C372.78 439.555 378.963 439.463 383.991 439.841C384.978 441.114 386.945 450.244 387.464 452.417C383.176 452.714 380.026 453.443 375.538 453.505C370.188 453.567 364.742 453.712 359.4 453.452C354.411 453.208 349.515 452.473 344.504 452.462C343.862 448.139 343.136 443.83 342.323 439.538C346.376 439.493 350.706 439.597 354.708 439.429Z" fill="#FEFEFE"/>
<path d="M329.139 291.636C330.588 286.343 331.9 281.045 333.382 275.708C335.078 269.614 336.491 261.082 342.236 257.476C345.566 255.388 348.615 256.657 352.119 256.332L352.234 256.541C351.087 257.985 347.671 262.398 347.105 263.977C345.549 268.313 344.03 273.873 342.8 278.306L336.558 300.018L336.011 299.942C334.299 298.832 330.154 293.472 329.139 291.636Z" fill="#FEFEFE"/>
<path d="M460.234 437.542C469.593 437.576 479.609 438.19 488.71 437.895C487.782 440.217 487.154 442.504 486.6 444.935C486.403 446.053 486.465 446.737 485.801 447.43C483.413 447.674 479.069 447.312 476.549 447.161C472.084 446.917 467.625 446.62 463.171 446.269C462.434 443.659 461.182 440.06 460.234 437.542Z" fill="#FEFEFE"/>
<path d="M464.433 450.488C471.297 451.66 477.872 451.758 484.831 452.184C484.203 455.624 483.786 459.409 483.371 462.885L483.259 463.429C482.351 463.384 468.455 456.412 465.702 455.338C465.461 453.564 464.876 452.218 464.433 450.488Z" fill="#FEFEFE"/>
<path d="M269.091 455.997C269.642 460.738 269.922 473.446 269.087 478.105C268.259 471.018 268.509 463.107 269.091 455.997Z" fill="black"/>
<path d="M530.701 120.001C519.753 121.858 508.534 126.891 500.723 134.966C498.578 137.182 495.669 143.812 492.25 142.77C492.006 142.506 491.762 142.241 491.521 141.977C490.299 130.65 488.486 118.515 478.94 110.917C477.009 109.383 473.797 107.546 471.414 106.002C469.295 100.78 477.053 102.548 480.021 102.116C492.595 100.289 503.954 94.2703 510.526 83.0407C511.956 80.5975 513.029 77.2373 516.356 79.1846C518.464 80.4167 517.032 84.9756 517.208 86.9677C517.191 89.2732 517.124 90.7032 518.099 92.9336C521.006 103.723 522.483 108.819 532.985 114.069C533.977 120.776 531.906 117.448 530.701 120.001Z" fill="black"/>
<path d="M512.121 90.2087C512.634 90.5328 512.878 92.9502 513.038 93.6925C515.005 102.738 516.735 109.877 524.492 115.636C516.488 117.7 508.626 121.846 501.908 126.615C500.868 127.353 496.219 131.777 495.809 131.929L495.501 131.427C493.365 124.293 492.822 118.33 487.637 112.207C486.796 111.213 482.693 107.082 482.594 106.389C484.355 106.595 487.171 105.478 488.934 105.011C499.167 102.298 505.112 97.7474 512.121 90.2087Z" fill="#FEF7AC"/>
<path d="M77.1512 47.3319C80.3998 47.7696 81.6465 54.3166 84.1459 57.0547C89.053 62.4303 94.8799 63.1179 101.747 63.6262C106.515 63.9789 104.82 68.1944 101.867 69.7357C100.656 70.397 97.1531 73.6408 96.351 74.7339C91.8543 80.8635 90.282 88.4462 88.683 95.6933C88.4949 96.5413 87.8329 97.3481 87.1379 97.8359C85.9206 98.0257 86.345 97.9963 85.0745 97.5192C82.2367 94.5969 80.8864 90.8383 76.5091 88.1103C73.231 86.0672 71.3831 84.6232 67.5722 83.2111C63.862 81.836 58.9754 83.1733 56.4297 80.29C55.4712 77.0585 59.585 76.0347 61.6296 74.6156C66.0338 71.5582 70.8131 65.3453 72.5849 60.2632C73.6612 57.1767 73.8949 53.6875 74.7786 50.541C75.2453 48.6885 75.5766 48.2234 77.1512 47.3319Z" fill="black"/>
<path d="M78.1755 57.5728C79.027 58.3191 79.7714 59.8741 80.8637 60.9268C85.5784 65.47 89.9022 66.5782 95.9306 68.2535C93.231 70.8601 91.0093 73.9203 89.3666 77.2948C87.4916 81.1184 86.9091 83.5736 85.7925 87.5886C85.5961 88.2954 85.4461 88.4095 84.9803 88.7333L84.3545 88.1193C79.0791 82.7264 72.7186 79.0957 65.3357 77.572C71.9039 71.9299 75.8207 65.8914 78.1755 57.5728Z" fill="#FEF7AC"/>
<path d="M64.0414 231.148C75.8969 229.915 82.5038 241.429 76.0763 250.861C73.7066 254.289 70.0457 256.606 65.934 257.281C63.7143 257.865 58.9838 256.612 57.1136 255.412C54.567 253.788 52.7721 251.216 52.1255 248.266C50.9335 242.721 53.5401 236.993 57.9039 233.6C59.9474 232.012 61.6167 231.648 64.0414 231.148ZM65.2112 251.757C68.3716 250.752 70.4804 249.572 72.1096 246.465C73.8862 243.078 72.9754 238.473 69.1244 237.051C67.246 236.339 65.6569 236.564 63.7401 236.668C61.0797 237.429 58.9721 238.612 57.6234 241.139C56.5796 243.048 56.3669 245.303 57.0351 247.374C57.5595 248.989 58.7052 250.447 60.2579 251.176C61.7978 251.917 63.5416 252.122 65.2112 251.757Z" fill="black"/>
<path d="M526.337 458.128C529.022 457.946 531.645 457.971 534.196 458.983C536.928 460.045 539.089 462.209 540.149 464.943C542.122 470.028 540.678 475.136 536.505 478.534C534.515 480.154 532.867 480.695 530.513 481.601C527.29 481.999 524.375 481.718 521.477 480.12C518.825 478.671 516.872 476.21 516.062 473.297C514.817 468.744 516.877 464.163 520.159 461.01C522.02 459.221 523.94 458.716 526.337 458.128ZM528.063 475.879C531.017 475.262 532.357 474.965 534.344 472.254C535.289 470.965 535.681 469.008 535.319 467.427C534.989 466.022 534.075 464.822 532.808 464.133C531.241 463.272 529.899 463.062 528.153 463.193C517.629 464.786 518.164 475.952 528.063 475.879Z" fill="black"/>
<path d="M532.985 114.069C537.024 116.796 534.854 119.56 530.701 120.001C531.906 117.448 533.977 120.776 532.985 114.069Z" fill="black"/>
</svg>
