<svg width="593" height="896" viewBox="0 0 593 896" fill="none" xmlns="http://www.w3.org/2000/svg">
<path d="M318.309 0.0536312C320.696 -0.242825 322.844 0.738279 324.925 1.80209C333.205 6.03538 339.051 16.3893 341.796 25.0208C346.396 39.4836 333.466 41.1401 323.789 46.2589C316.982 49.86 311.018 55.0031 307.554 61.9613C292.135 92.9302 309.104 106.275 323.332 131.92C327.649 139.7 330.671 148.984 333.487 157.427C339.846 160.063 347.636 162.296 354.327 164.616C381.42 156.095 378.052 157.366 394.152 134.952C396.822 143.38 403.121 156.838 406.755 165.426C417.477 165.013 430.539 164.963 441.328 165.385C446.256 165.578 455.732 172.955 460.302 175.957C482.471 190.483 500.304 213.668 512.803 236.942C522.316 254.659 521.27 256.933 537.775 271.493C549.925 282.214 561.994 297.097 573.188 309.865C576.851 314.046 589.316 338.159 592.435 344.402C591.609 372.942 581.145 402.123 572.257 429.107C568.785 439.453 565.781 444.273 562.791 452.339C558.536 463.814 556.239 473.585 554.558 485.031C551.764 483.317 549.629 481.626 546.396 481.23L545.799 481.956C546.84 483.403 548.999 484.941 550.713 485.538L555.542 487.214C559.066 492.462 565.814 508.526 565.542 514.343C565.045 525.145 553.359 531.615 545.832 537.193C544.256 538.497 541.711 543.41 540.187 544.132C534.356 546.901 532.016 548.883 528.219 554.021C527.307 555.258 521.49 557.813 519.771 558.854C508.882 565.454 498.389 561.958 486.602 562.674C480.618 563.085 474.797 565.501 468.411 564.838C463.163 564.293 458.22 561.032 453.262 560.812L452.728 561.347C451.744 567.97 457.303 576.556 458.401 581.599C460.101 589.417 459.571 599.335 460.98 607.826C459.414 611.508 457.255 614.569 455.335 617.816C449.05 628.422 447.154 629.964 437.068 636.12C437.177 644.128 435.912 649.887 435.687 657.303C436.012 663.894 435.845 670.307 435.687 676.873C435.582 681.324 436.814 684.37 435.883 689.084C432.564 705.893 425.348 722.497 424.507 739.717C426.48 740.806 429.808 742.11 431.929 742.979C435.587 754.253 432.741 759.788 425.123 767.911C425.954 770.251 426.8 772.586 427.659 774.912C428.528 777.242 432.464 787.863 437.139 788.283C438.562 788.412 437.708 791.669 437.899 791.903C438.796 793.011 439.546 793.927 440.349 794.949C446.528 802.929 452.766 810.866 459.051 818.76C461.854 822.322 467.069 828.602 469.304 832.188C472.447 837.231 475.924 845.535 478.431 851.161C477.433 857.517 474.887 872.726 473.159 878.672C467.327 882.105 451.247 890.62 445.163 891.732C436.485 893.322 424.173 893.427 415.252 894.965L414.822 895.042C409.841 890.629 400.375 880.453 397.767 874.35C395.255 868.457 396.272 857.836 395.446 851.184C395.064 844.236 392.165 837.407 390.494 830.879C386.31 814.576 367.196 816.271 371.848 796.458C373.488 789.477 374.862 778.871 374.904 771.674C372.183 769.616 368.097 765.705 365.433 763.284C367.518 758.556 368.699 753.456 370.77 748.805C372.587 744.722 376.171 740.309 378.836 736.561C377.568 724.885 370.689 721.074 369.307 710.372C368.328 701.748 369.172 692.904 369.457 684.256C369.603 679.796 371.913 672.356 367.764 669.232C362.452 669.767 357.27 671.515 352.03 672.413C337.024 674.982 322.226 678.568 307.32 681.543C300.17 682.971 291.157 682.255 283.785 682.465C277.248 683.072 267.142 681.849 260.981 682.451C252.561 683.277 227.744 671.152 221.967 673.459C223.271 681.897 231.269 699.981 231.082 707.884C230.355 717.965 226.714 722.798 223.374 732.191C222.848 733.672 221.801 736.274 222.442 737.673C223.75 737.769 224.031 737.735 225.273 738.27C226.483 741.069 228.671 750.037 229.544 753.313C228.212 755.538 224.401 758.661 223.866 761.03C222.469 767.214 241.832 806.224 240.721 809.471C240.666 809.634 240.598 809.786 240.538 809.949C240.267 810.67 239.997 811.367 239.656 812.06C237.585 816.262 233.13 822.47 229.298 825.197C222.418 830.096 205.744 833.711 196.827 838.797C191.883 841.619 187.238 845.186 182.527 848.391C176.36 852.588 169.741 856.614 164.084 861.48C158.722 866.093 153.79 872.741 147.858 876.408C140.403 881.016 128.048 884.641 119.531 887.544C112.436 885.5 102.088 881.427 95.0027 878.705C91.7647 874.063 87.8896 866.685 86.4267 861.303C97.9016 844.952 110.319 832.866 125.813 820.598C129.754 817.48 148.842 796.449 149.843 792.514C148.303 791.162 147.725 790.723 146.537 788.975C146.458 787.762 146.738 786.764 147.909 786.339C158.149 782.6 159.761 782.247 167.15 773.685C164.501 768.885 159.296 764.425 158.207 761.206C158.361 757.448 167.241 750.228 170.206 747.468C168.159 739.235 166.626 729.207 163.284 721.447C162.271 719.097 158.13 714.618 156.831 711.748C155.571 709.527 154.55 703.835 153.223 702.025C148.194 695.168 143.119 691.567 143.407 682.269C143.447 680.975 142.274 677.833 141.714 676.314C143.695 673.86 144.332 673.081 145.708 670.283C143.454 657.609 143.178 647.146 147.382 634.859C152.346 620.356 151.392 607.53 150.427 592.521C144.505 589.283 136.977 583.466 130.527 581.814C128.595 581.322 126.485 582.86 124.993 583.982C116.756 580.367 111.081 575.439 103.656 570.998C78.7687 556.113 57.4695 537.016 35.5054 518.34C26.3779 510.58 21.1459 509.462 19.1492 496.483C13.401 472.023 6.38815 447.783 0 423.475C2.3306 420.571 11.1348 413.611 11.6731 411.997C17.5808 394.282 31.0429 379.967 38.3719 362.895C41.4594 355.704 41.1428 346.12 43.3263 338.795C46.4917 328.175 50.6825 318.671 54.5022 308.342C58.3745 297.294 60.5709 283.899 66.2708 273.633C69.5146 267.791 77.4553 260.386 82.0874 255.412C84.1396 253.208 87.0906 252.481 89.2115 250.612C89.6179 249.178 88.7535 247.501 88.211 246.015C96.7674 236.936 100.512 233.757 103.529 220.081C115.634 224.36 121.48 227.309 134.246 226.871C137.505 224.932 140.82 222.004 143.575 219.418C140.362 206.187 137.811 193.443 135.563 179.982C133.888 169.948 136.258 164.822 131.332 154.702C128.774 149.446 124.582 146.513 119.772 143.439C116.179 141.143 112.511 138.862 108.41 137.588C93.3694 132.917 76.8999 143.846 70.0165 141.218C67.0531 140.086 65.3118 137.434 64.1704 134.61C62.8074 131.239 62.2773 127.663 61.7324 124.091C60.4319 115.566 60.2896 109.72 63.678 101.594C64.594 101.045 68.1067 98.9673 68.9677 99.0441C77.6053 100.366 85.0207 109.665 92.0116 114.66C105.138 124.039 112.749 124.301 128.264 124.167C130.436 107.585 128.671 92.0043 135.481 76.212C137.166 72.3039 137.9 68.4105 140.161 64.5391C142.846 59.9428 145.53 55.5427 148.442 51.0882C155.439 38.8078 158.719 37.0591 170.864 30.4328C174.525 28.4352 180.78 24.4325 185.004 23.5758C191.646 22.6861 203.425 18.1323 209.565 18.5005C215.517 18.8567 232.641 23.5175 238.181 25.6669C245.129 28.3631 255.181 36.8571 260.759 41.7404C268.035 48.1098 275.138 58.2633 283.652 62.8567L284.272 63.1881C296.45 57.6047 303.132 41.7194 306.272 29.3769C308.883 19.1184 307.252 5.08479 318.309 0.0536312Z" fill="#B0B0B0"/>
</svg>
