<svg width="1428" height="207" viewBox="0 0 1428 207" fill="none" xmlns="http://www.w3.org/2000/svg">
<path d="M476.079 61.594L432.865 104.809L476.079 148.023L519.294 104.809L476.079 61.594Z" fill="#A66CFF"/>
<path d="M101.075 206.949C81.5001 206.949 63.9955 202.62 48.5613 193.962C33.3153 185.115 21.3632 172.975 12.705 157.541C4.23499 141.918 0 124.226 0 104.462C0 84.699 4.23499 67.1003 12.705 51.6661C21.3632 36.0436 33.3153 23.9033 48.5613 15.2451C63.9955 6.58692 81.5001 2.25781 101.075 2.25781C120.462 2.25781 137.778 6.58692 153.024 15.2451C168.27 23.9033 180.128 36.0436 188.598 51.6661C197.257 67.1003 201.586 84.699 201.586 104.462C201.586 124.226 197.257 141.918 188.598 157.541C180.128 172.975 168.27 185.115 153.024 193.962C137.778 202.62 120.462 206.949 101.075 206.949ZM101.075 180.128C114.815 180.128 126.956 176.928 137.496 170.528C148.225 164.129 156.507 155.282 162.341 143.989C168.365 132.507 171.376 119.332 171.376 104.462C171.376 89.781 168.365 76.7937 162.341 65.5004C156.507 54.0188 148.225 45.0783 137.496 38.6788C126.956 32.2792 114.815 29.0794 101.075 29.0794C87.335 29.0794 75.1005 32.2792 64.3719 38.6788C53.6432 45.0783 45.2674 54.0188 39.2443 65.5004C33.4094 76.7937 30.492 89.781 30.492 104.462C30.492 119.332 33.4094 132.507 39.2443 143.989C45.2674 155.282 53.6432 164.129 64.3719 170.528C75.1005 176.928 87.335 180.128 101.075 180.128Z" fill="white"/>
<path d="M400.853 204.126H369.797L353.421 158.953H256.016L239.076 204.126H208.584L285.379 5.08114H326.6L400.853 204.126ZM303.166 34.4438L266.18 132.413H343.822L308.248 34.4438H303.166Z" fill="white"/>
<path d="M642.59 206.95C624.332 206.95 608.428 202.244 594.876 192.833C581.512 183.234 572.383 170.247 567.489 153.871L595.44 149.354C600.899 159.895 607.392 167.706 614.921 172.788C622.45 177.682 631.673 180.128 642.59 180.128C653.695 180.128 662.73 177.682 669.694 172.788C676.658 167.706 680.14 160.836 680.14 152.177C680.14 145.778 678.164 140.414 674.211 136.084C670.447 131.755 665.647 128.273 659.812 125.638C653.977 123.003 646.354 120.086 636.943 116.886C624.332 112.745 613.98 108.604 605.887 104.463C597.793 100.322 590.923 94.4874 585.276 86.9585C579.818 79.2414 577.089 69.4539 577.089 57.5959C577.089 46.4908 579.818 36.7974 585.276 28.5156C590.923 20.0456 598.64 13.552 608.428 9.03465C618.215 4.51733 629.132 2.25867 641.178 2.25867C657.93 2.25867 672.329 6.68188 684.375 15.5283C696.421 24.1865 704.985 36.1386 710.067 51.3846L682.681 55.9019C678.917 47.2437 673.552 40.6559 666.588 36.1386C659.624 31.4331 651.436 29.0803 642.025 29.0803C631.861 29.0803 623.485 31.5272 616.898 36.4209C610.31 41.1265 607.016 47.6202 607.016 55.9019C607.016 62.1132 608.898 67.3835 612.663 71.7126C616.615 76.0417 621.415 79.5238 627.062 82.1589C632.896 84.794 640.613 87.8055 650.213 91.1935C662.447 95.3344 672.611 99.5694 680.705 103.899C688.987 108.039 695.951 113.968 701.597 121.685C707.244 129.403 710.067 139.096 710.067 150.766C710.067 162.059 707.056 171.941 701.033 180.411C695.198 188.881 687.104 195.468 676.752 200.174C666.588 204.691 655.201 206.95 642.59 206.95Z" fill="white"/>
<path d="M829.766 179.846V204.127H801.532C786.286 204.127 774.711 200.362 766.805 192.833C758.9 185.304 754.947 174.482 754.947 160.365V82.7235H729.82V58.1606H754.947V15.8106H782.616V58.1606H827.224V82.7235H782.616V160.365C782.616 173.352 788.921 179.846 801.532 179.846H829.766Z" fill="white"/>
<path d="M912.088 206.95C901.735 206.95 892.418 204.409 884.137 199.327C875.855 194.057 869.361 186.904 864.656 177.87C859.95 168.647 857.597 158.295 857.597 146.813V58.1606H885.266V144.554C885.266 155.66 888.372 164.694 894.583 171.658C900.794 178.623 908.794 182.105 918.581 182.105C928.745 182.105 937.215 178.529 943.991 171.376C950.767 164.224 954.155 155.283 954.155 144.554V58.1606H981.824V204.127H955.567V182.105C950.861 190.01 944.65 196.127 936.933 200.456C929.404 204.785 921.122 206.95 912.088 206.95Z" fill="white"/>
<path d="M1085.53 206.95C1071.79 206.95 1059.47 203.75 1048.55 197.351C1037.82 190.763 1029.35 181.728 1023.14 170.247C1017.12 158.765 1014.1 145.778 1014.1 131.285C1014.1 116.603 1017.12 103.522 1023.14 92.0405C1029.35 80.559 1037.82 71.6184 1048.55 65.2189C1059.47 58.6311 1071.79 55.3373 1085.53 55.3373C1097.58 55.3373 1108.22 57.8783 1117.44 62.9602C1126.66 67.854 1134.19 73.9712 1140.03 81.3119V5.08199H1167.69V204.127H1141.15V179.846C1135.13 187.563 1127.41 194.057 1118 199.327C1108.78 204.409 1097.96 206.95 1085.53 206.95ZM1091.46 182.105C1105.77 182.105 1117.44 177.399 1126.47 167.988C1135.51 158.577 1140.03 146.343 1140.03 131.285C1140.03 116.227 1135.51 103.993 1126.47 94.5815C1117.44 85.1704 1105.77 80.4649 1091.46 80.4649C1077.16 80.4649 1065.49 85.1704 1056.45 94.5815C1047.61 103.993 1043.18 116.227 1043.18 131.285C1043.18 146.343 1047.61 158.577 1056.45 167.988C1065.49 177.399 1077.16 182.105 1091.46 182.105Z" fill="white"/>
<path d="M1239.21 204.127H1211.54V58.1606H1239.21V204.127ZM1225.66 35.0093C1220.39 35.0093 1216.06 33.4094 1212.67 30.2096C1209.28 27.0099 1207.59 22.7749 1207.59 17.5046C1207.59 12.4227 1209.28 8.28177 1212.67 5.08199C1216.06 1.694 1220.39 0 1225.66 0C1230.55 0 1234.69 1.694 1238.08 5.08199C1241.47 8.28177 1243.16 12.4227 1243.16 17.5046C1243.16 22.5866 1241.47 26.8216 1238.08 30.2096C1234.88 33.4094 1230.74 35.0093 1225.66 35.0093Z" fill="white"/>
<path d="M1350.21 206.95C1335.34 206.95 1322.07 203.75 1310.4 197.351C1298.73 190.951 1289.6 182.011 1283.02 170.529C1276.43 159.048 1273.13 145.966 1273.13 131.285C1273.13 116.603 1276.43 103.522 1283.02 92.0405C1289.6 80.559 1298.73 71.6184 1310.4 65.2189C1322.07 58.6311 1335.34 55.3373 1350.21 55.3373C1365.08 55.3373 1378.35 58.6311 1390.02 65.2189C1401.69 71.6184 1410.82 80.559 1417.41 92.0405C1423.99 103.522 1427.29 116.603 1427.29 131.285C1427.29 145.966 1423.99 159.048 1417.41 170.529C1410.82 182.011 1401.69 190.951 1390.02 197.351C1378.35 203.75 1365.08 206.95 1350.21 206.95ZM1350.21 181.54C1364.52 181.54 1376.09 176.929 1384.94 167.706C1393.97 158.483 1398.49 146.343 1398.49 131.285C1398.49 116.227 1393.97 104.087 1384.94 94.8639C1376.09 85.4528 1364.52 80.7472 1350.21 80.7472C1335.91 80.7472 1324.33 85.4528 1315.48 94.8639C1306.64 104.087 1302.21 116.227 1302.21 131.285C1302.21 146.154 1306.64 158.295 1315.48 167.706C1324.33 176.929 1335.91 181.54 1350.21 181.54Z" fill="white"/>
</svg>
