<svg width="56" height="54" viewBox="0 0 56 54" fill="none" xmlns="http://www.w3.org/2000/svg">
<path d="M56.0001 20.81V10.4522C56.0001 6.4945 52.9937 3.18425 49.0542 2.80437L24.1929 0.407015C19.3141 -0.0634415 15.2481 4.09287 15.8256 8.96014L17.3196 21.5525C17.7784 25.4186 21.0562 28.3305 24.9495 28.3305H43.8305L52.3082 36.4325C52.5641 36.6638 52.9471 36.3593 52.7793 36.0578L48.4795 28.3305C52.633 28.3305 56.0001 24.9635 56.0001 20.81Z" fill="#C5F700"/>
<path d="M49.989 29.5776C50.1222 29.6975 50.2604 29.9946 50.3364 30.1581C50.3379 30.1611 50.3393 30.164 50.3407 30.167C50.3587 30.2058 50.3777 30.2415 50.3999 30.2832C50.4529 30.3828 50.5245 30.5173 50.6468 30.8131C50.693 30.8933 50.7386 30.9738 50.7836 31.0546C51.2694 31.9277 51.713 32.8242 52.1483 33.7254C52.1547 33.7363 52.1612 33.7473 52.1678 33.7585C52.2948 33.9746 52.4524 34.2425 52.5288 34.4234C52.626 34.6534 52.6861 34.8129 52.7346 34.9444C52.8788 35.2436 53.0238 35.5423 53.1708 35.84C53.3471 36.1241 53.2412 36.5989 52.9691 36.7801C52.7219 36.9947 52.2491 36.9712 52.0321 36.7379C52.0303 36.7365 52.0255 36.7316 52.0238 36.7301C51.9016 36.6052 51.7788 36.4809 51.6552 36.3576C51.4791 36.1818 51.3013 36.0079 51.1215 35.836C50.9559 35.6778 50.789 35.5208 50.6211 35.3651C50.5159 35.2821 50.4138 35.2053 50.3192 35.1341C50.1862 35.0341 50.0679 34.945 49.9761 34.8651C49.755 34.6727 49.5298 34.4277 49.3626 34.2457C49.3352 34.216 49.3094 34.1879 49.2855 34.162C49.1384 34.0324 48.9909 33.9032 48.8433 33.7741C48.8372 33.7616 48.8311 33.7489 48.825 33.7359C48.7486 33.5739 48.5995 33.4325 48.3648 33.2098C48.2626 33.1129 48.1442 33.0005 48.0084 32.8643C47.921 32.7766 47.8926 32.7142 47.8694 32.6632C47.8626 32.6482 47.8562 32.6342 47.8489 32.6208C47.8239 32.575 47.7741 32.5511 47.7153 32.5229C47.6391 32.4864 47.5476 32.4425 47.4752 32.3339C47.2444 31.9879 47.0725 31.9088 46.9425 31.849C46.9044 31.8314 46.8699 31.8155 46.8385 31.795C46.7368 31.7286 46.629 31.5951 46.5569 31.4844C46.4998 31.3966 46.3359 31.2728 46.2031 31.1878C46.1529 31.1557 46.0955 31.1012 46.028 31.037C45.9581 30.9706 45.8772 30.8937 45.7821 30.8205C45.5416 30.6356 45.4149 30.5362 45.3131 30.4562C45.284 30.4334 45.257 30.4122 45.23 30.391C45.1444 30.3241 45.0414 30.2379 44.9371 30.1506C44.8123 30.0462 44.6856 29.9401 44.5849 29.864C44.3605 29.6282 44.1386 29.3899 43.9167 29.1516C43.8028 29.0291 43.7252 28.8784 43.7029 28.7308C43.6808 28.5832 43.7152 28.4512 43.8005 28.3619C43.8858 28.2726 44.0161 28.2323 44.1646 28.2478C44.313 28.2633 44.4672 28.3339 44.5947 28.4421C44.8514 28.6604 45.1082 28.8786 45.3622 29.0997C45.6716 29.3691 45.9769 29.6428 46.2732 29.9259C46.4804 30.1239 46.6856 30.3241 46.8892 30.526C46.9101 30.5468 46.9311 30.5676 46.952 30.5884C47.1471 30.7328 47.34 30.8789 47.4692 30.9888C47.5759 31.0795 47.6384 31.1617 47.6919 31.232C47.7288 31.2804 47.7614 31.3233 47.8012 31.3595C47.8226 31.3789 47.8524 31.4048 47.8884 31.4361C48.0352 31.5636 48.2845 31.7803 48.4817 32.0098C48.5691 32.1116 48.6634 32.2376 48.7534 32.3578C48.882 32.5298 49.002 32.6902 49.0811 32.7517C49.22 32.8598 49.3548 33.0095 49.4739 33.1418C49.5874 33.2679 49.6868 33.3783 49.7619 33.4216C49.8516 33.4733 49.9067 33.5398 49.9886 33.6387C50.0455 33.7072 50.1153 33.7913 50.2185 33.8969C50.3376 34.0189 50.4128 34.1146 50.4768 34.196C50.5668 34.3105 50.6345 34.3966 50.7711 34.4877C50.9228 34.5889 51.0724 34.704 51.1724 34.8134C51.2179 34.8632 51.2744 34.9156 51.3331 34.9701C51.4109 35.0423 51.4927 35.1183 51.5585 35.1969C51.6127 35.2617 51.6463 35.327 51.676 35.3847C51.6853 35.4028 51.6942 35.42 51.7033 35.4364C51.7518 35.4823 51.8005 35.5282 51.8493 35.5739C51.8598 35.5786 51.871 35.5834 51.8826 35.5884C51.941 35.6136 52.0128 35.6446 52.0877 35.6975C52.2064 35.7813 52.2882 35.8781 52.3745 35.9802C52.4287 36.0443 52.4846 36.1105 52.5524 36.1769C52.5458 36.1711 52.5453 36.1701 52.5429 36.1678C52.5357 36.1578 52.4986 36.1433 52.4801 36.1431C52.4553 36.1338 52.4113 36.171 52.4245 36.2167C52.4288 36.2307 52.4469 36.2363 52.4617 36.2329C52.4618 36.2328 52.4619 36.2328 52.462 36.2328C52.463 36.2326 52.4639 36.2323 52.4649 36.2321C52.4647 36.2329 52.4643 36.2334 52.4637 36.2334C52.345 36.0427 52.2253 35.8525 52.1051 35.6626C52.0918 35.6466 52.0784 35.6304 52.0652 35.6144C52.0005 35.5359 51.9377 35.4597 51.8848 35.4166C51.8274 35.37 51.7295 35.2269 51.6263 35.0761C51.5588 34.9773 51.4889 34.8752 51.4267 34.7947C51.3904 34.7477 51.3768 34.6914 51.3629 34.6335C51.3499 34.5795 51.3365 34.524 51.304 34.4733C51.2877 34.448 51.2663 34.4227 51.2434 34.3957C51.2233 34.372 51.202 34.3469 51.1821 34.3192C51.1637 34.2936 51.137 34.2283 51.1028 34.1447C51.0817 34.093 51.0576 34.0343 51.0309 33.9736C50.9375 33.8256 50.8444 33.6774 50.7519 33.5289C50.7223 33.5037 50.6915 33.4846 50.6595 33.4738C50.6365 33.466 50.6121 33.4621 50.5871 33.458C50.5531 33.4525 50.5179 33.4467 50.4836 33.4309C50.4568 33.4185 50.4371 33.3974 50.4342 33.3774C50.4329 33.368 50.4352 33.3591 50.4372 33.3509C50.4396 33.3416 50.4416 33.3333 50.4378 33.3266C50.435 33.3219 50.4281 33.3191 50.4197 33.3157C50.4064 33.3103 50.3891 33.3031 50.3779 33.2838C50.3362 33.212 50.2935 33.1278 50.2518 33.0452C50.2054 32.9534 50.16 32.8637 50.1181 32.7954C50.0711 32.719 50.0241 32.5989 49.9769 32.4787C49.944 32.3948 49.911 32.3109 49.878 32.2414C49.8457 32.1734 49.7992 32.1097 49.7542 32.048C49.7002 31.9739 49.6482 31.9027 49.6253 31.8304C49.6206 31.8157 49.628 31.7903 49.6371 31.7584C49.6435 31.7358 49.6509 31.7098 49.6556 31.6823C49.6096 31.5996 49.5642 31.5165 49.5194 31.433C49.5156 31.4314 49.5117 31.4296 49.5077 31.4279C49.5076 31.4279 49.5075 31.4279 49.5074 31.4278C49.4174 31.3889 49.2943 31.3357 49.2642 31.1813C49.2566 31.1421 49.2649 31.1101 49.2724 31.0812C49.2798 31.0529 49.2864 31.0276 49.2763 31.0015C49.2648 30.972 49.2359 30.9456 49.2044 30.9167C49.1602 30.8763 49.1108 30.8311 49.0971 30.7659C49.0961 30.7614 49.0951 30.7566 49.0941 30.7516C49.0839 30.7045 49.0688 30.6346 49.0722 30.5549C48.9838 30.3731 48.897 30.1904 48.8114 30.0071C48.6685 29.7016 48.5286 29.3944 48.3887 29.0873C48.3208 28.9378 48.2941 28.773 48.3174 28.6276C48.3408 28.4821 48.4116 28.3684 48.5175 28.3094C48.6233 28.2505 48.7573 28.2504 48.8932 28.3072C49.029 28.3641 49.155 28.4736 49.2463 28.6101C49.3948 28.8328 49.5434 29.0557 49.6905 29.2792C49.6995 29.2902 49.7084 29.3013 49.7172 29.3125C49.7826 29.3951 49.8594 29.4629 49.9362 29.5307C49.9538 29.5463 49.9715 29.5619 49.989 29.5776ZM48.0839 29.0432C48.0472 29.1013 47.9763 29.0776 47.9373 29.0645C47.9365 29.0643 47.9358 29.0641 47.9351 29.0639C47.9259 29.0608 47.9171 29.06 47.9068 29.0591C47.8824 29.057 47.8493 29.0542 47.7804 29.0172C47.7603 29.0186 47.7402 29.0193 47.7201 29.0193C47.5034 29.0193 47.2867 28.971 47.07 28.9132C47.0672 28.9135 47.0644 28.9138 47.0616 28.9141C47.0073 28.9201 46.9399 28.9275 46.8975 28.9063C46.8437 28.8794 46.8071 28.8544 46.777 28.8328C46.6049 28.7863 46.4328 28.7447 46.2606 28.7275C46.2067 28.7221 46.1527 28.7192 46.0987 28.7192C46.0491 28.7192 45.9994 28.721 45.9497 28.7245C45.9208 28.7371 45.8932 28.7522 45.8677 28.7661C45.8319 28.7856 45.8 28.803 45.7736 28.8086C45.7101 28.8223 45.6381 28.8007 45.5846 28.7847C45.5758 28.7821 45.5676 28.7796 45.5599 28.7775C45.5174 28.7854 45.4749 28.7939 45.4324 28.8026C45.4296 28.7978 45.4268 28.7927 45.4238 28.7876C45.3876 28.7232 45.343 28.724 45.2728 28.7252C45.2423 28.7257 45.2069 28.7263 45.1652 28.7217C45.1383 28.7187 45.1245 28.6931 45.1132 28.6723C45.1099 28.6662 45.1068 28.6605 45.1036 28.6558C45.0929 28.64 45.0815 28.6571 45.068 28.6773C45.0506 28.7036 45.0297 28.7351 45.002 28.7066C44.914 28.6159 44.8752 28.6775 44.8458 28.724C44.8372 28.7377 44.8294 28.75 44.8214 28.7569C44.7955 28.7791 44.7586 28.7571 44.7307 28.7269C44.7086 28.7029 44.6643 28.7267 44.6308 28.7569C44.6181 28.7683 44.6009 28.7686 44.5807 28.7689C44.5598 28.7692 44.5356 28.7694 44.5097 28.7823C44.4443 28.8147 44.4095 28.8304 44.3816 28.843C44.3736 28.8466 44.3662 28.8498 44.3588 28.8532C44.3353 28.864 44.3062 28.8728 44.2768 28.8818C44.2416 28.8925 44.2058 28.9034 44.1786 28.9179C44.1081 28.9025 44.0376 28.8835 43.967 28.8646C43.9308 28.8547 43.8961 28.7993 43.8705 28.708C43.8449 28.6166 43.8305 28.4974 43.8305 28.3739C43.8305 28.2504 43.8449 28.1313 43.8705 28.0399C43.8961 27.9485 43.9308 27.893 43.967 27.8832C44.04 27.8636 44.113 27.844 44.186 27.8284C44.2749 27.8093 44.3637 27.7962 44.4526 27.7962C44.5148 27.7962 44.577 27.7992 44.6392 27.8045C44.6456 27.805 44.652 27.8056 44.6584 27.8062C44.7106 27.7758 44.7628 27.7481 44.7995 27.7383C44.8298 27.7301 44.852 27.7464 44.8709 27.7602C44.8839 27.7698 44.8955 27.7783 44.9071 27.7769C44.9134 27.7762 44.922 27.7743 44.9323 27.7721C44.9744 27.7629 45.046 27.7472 45.1113 27.7769C45.1403 27.7901 45.1739 27.816 45.2061 27.8408C45.252 27.8762 45.2949 27.9093 45.3165 27.8991C45.3545 27.8813 45.3981 27.8964 45.4366 27.9098C45.4733 27.9225 45.5054 27.9336 45.5237 27.913C45.5455 27.8885 45.5641 27.8985 45.5918 27.9133C45.611 27.9236 45.6345 27.9362 45.6665 27.9412C45.7035 27.9471 45.7296 27.9643 45.7518 27.979C45.7831 27.9996 45.8066 28.0151 45.8417 27.9866C45.8807 27.9549 45.9214 27.9347 45.9535 27.9447C45.9681 27.9493 45.9848 27.9482 46.0022 27.947C46.0252 27.9455 46.0494 27.9439 46.0715 27.9553C46.0897 27.9646 46.1048 27.9886 46.1181 28.0098C46.1222 28.0164 46.1262 28.0228 46.1301 28.0283C46.1446 28.028 46.1591 28.0276 46.1736 28.0269C46.176 28.023 46.1784 28.0187 46.181 28.0143C46.1939 27.9922 46.2098 27.965 46.2295 27.9515C46.2607 27.9301 46.288 27.9435 46.3169 27.9577C46.3393 27.9688 46.3627 27.9804 46.3895 27.9762C46.4077 27.9734 46.4285 27.9636 46.4492 27.9539C46.4798 27.9395 46.51 27.9253 46.531 27.9343C46.5389 27.9377 46.5457 27.9527 46.5523 27.9677C46.5524 27.9678 46.5524 27.9679 46.5524 27.968C46.5529 27.969 46.5533 27.97 46.5538 27.971C46.605 27.9595 46.6561 27.9469 46.7073 27.9336C46.7117 27.9297 46.7162 27.9259 46.7207 27.9221C46.7423 27.9038 46.7634 27.8859 46.7772 27.8606C46.7921 27.8331 46.8295 27.8172 46.869 27.8003C46.8948 27.7893 46.9216 27.7779 46.9434 27.7627C46.9561 27.7538 46.9682 27.7693 46.9807 27.7853C46.9923 27.8003 47.0042 27.8156 47.0172 27.8118C47.0238 27.8099 47.0308 27.8035 47.0383 27.7966C47.045 27.7905 47.052 27.7841 47.0593 27.7802C47.0661 27.7766 47.0813 27.785 47.1007 27.7958C47.1128 27.8024 47.1264 27.8099 47.1408 27.8161C47.1787 27.8064 47.2166 27.7972 47.2545 27.7885C47.2624 27.7749 47.2693 27.7573 47.2747 27.7346C47.2786 27.7183 47.2819 27.6989 47.2853 27.679C47.2899 27.652 47.2947 27.624 47.3014 27.6018C47.3065 27.5844 47.3126 27.5774 47.3167 27.5846C47.3186 27.588 47.3201 27.5944 47.3214 27.6001C47.3229 27.6067 47.3243 27.6126 47.326 27.6124C47.3272 27.6123 47.3284 27.6076 47.3299 27.6019C47.3324 27.5929 47.3356 27.5813 47.3404 27.5809C47.3584 27.5794 47.3789 27.5831 47.3989 27.5868C47.4212 27.5908 47.443 27.5948 47.4604 27.5913C47.4798 27.5874 47.5075 27.6047 47.5353 27.622C47.5547 27.634 47.5741 27.646 47.5907 27.6509C47.607 27.6557 47.624 27.6462 47.6404 27.6368C47.6602 27.6256 47.6792 27.6148 47.6953 27.63C47.6985 27.633 47.7026 27.6518 47.7077 27.6753C47.7113 27.6919 47.7154 27.7109 47.7201 27.7285C47.7407 27.7285 47.7612 27.7292 47.7818 27.7307C47.7825 27.7281 47.7832 27.7255 47.784 27.7229C47.784 27.7228 47.784 27.7228 47.784 27.7227C47.8009 27.663 47.824 27.5813 47.8564 27.6301C47.8646 27.6424 47.8698 27.6653 47.8745 27.6859C47.8791 27.7061 47.8832 27.7242 47.8892 27.728C47.896 27.7323 47.9041 27.7199 47.9129 27.7064C47.9252 27.6875 47.939 27.6663 47.9528 27.686C47.9537 27.6873 47.9547 27.6888 47.9558 27.6903C47.9658 27.7043 47.9806 27.7251 47.9954 27.7668C48.0392 27.778 48.083 27.791 48.1267 27.8053C48.1997 27.829 48.2727 27.8561 48.3457 27.8832C48.3812 27.8965 48.4152 27.9534 48.4403 28.0444C48.4654 28.1356 48.4795 28.2528 48.4795 28.3739C48.4795 28.4951 48.4654 28.6122 48.4403 28.7033C48.4152 28.7944 48.3812 28.8512 48.3457 28.8646C48.2878 28.8861 48.2299 28.9076 48.172 28.9274C48.1689 28.9299 48.1659 28.9323 48.1629 28.9346C48.1403 28.9516 48.1194 28.9857 48.0984 29.0199C48.0936 29.0277 48.0888 29.0356 48.0839 29.0432ZM55.0414 22.6306C55.1364 22.179 55.2522 21.4907 55.2506 20.81C55.2526 20.2198 55.2604 19.6433 55.2661 19.2193C55.2663 19.2016 55.2665 19.1839 55.2667 19.1663C55.2698 18.9375 55.2706 18.7211 55.2715 18.4675C55.2736 17.8628 55.2764 17.0459 55.3134 15.3409C55.3121 14.8449 55.3113 14.3487 55.3113 13.8526C55.3113 12.7192 55.3135 11.5857 55.3174 10.4522C55.4033 6.96915 52.5156 3.70818 48.9969 3.39853C48.5524 3.35097 48.1079 3.30332 47.6634 3.25561C47.596 3.24941 47.5274 3.24311 47.4582 3.23675C46.1201 3.11374 44.4609 2.96119 43.4209 2.83962C42.0986 2.68504 41.2012 2.57339 40.4642 2.48065C36.2331 2.0259 32.0015 1.57608 27.7676 1.15055C26.5638 1.02956 25.3598 0.910563 24.1556 0.793949C24.0374 0.782503 23.9198 0.77394 23.8027 0.768195C22.6371 0.70921 21.4603 0.936937 20.4046 1.43063C19.7937 1.72686 19.26 2.0964 18.8125 2.48886C18.1824 3.04091 17.7248 3.63452 17.3982 4.15013C16.5839 5.38545 16.1739 7.06327 16.23 8.30876C16.2351 8.514 16.248 8.70314 16.2665 8.88211C16.2675 8.89056 16.2686 8.899 16.2696 8.90745C16.4001 9.94061 16.5312 10.9739 16.6625 12.007C16.6659 12.0772 16.6693 12.148 16.6726 12.2199C16.7143 13.1176 16.8449 14.2118 17.0505 15.9341C17.14 16.6841 17.2437 17.5534 17.3605 18.5774C17.4358 19.2372 17.4506 19.579 17.4628 19.8582C17.4664 19.9404 17.4698 20.0174 17.4743 20.0953C17.49 20.3621 17.5402 20.6393 17.5994 20.9669C17.6294 21.1327 17.6617 21.3114 17.6931 21.5082C17.7408 21.8017 17.8014 22.132 17.8854 22.5193C18.3873 24.5502 19.206 25.2053 19.6732 25.6775C19.8226 25.8141 19.9626 25.9319 20.1061 26.0514C20.5659 26.4446 21.2688 26.9459 21.8527 27.2446C22.3063 27.4996 23.3135 27.8097 24.0988 27.8547C24.3265 27.8725 24.6132 27.8932 24.9495 27.8925C25.057 27.8923 25.169 27.8922 25.2852 27.8922C25.8022 27.8919 26.4005 27.8916 27.0404 27.8788C28.6577 27.8464 29.5172 27.8307 30.2082 27.8181C30.4052 27.8145 30.5887 27.8113 30.772 27.8078C31.3512 27.7971 32.07 27.7882 32.7977 27.7793C33.6686 27.7686 34.5525 27.7577 35.225 27.7432C36.9682 27.7586 38.7115 27.7775 40.4545 27.7965C41.3498 27.8063 42.2088 27.8617 42.8419 27.9531C43.4749 28.0444 43.8304 28.1636 43.8305 28.2871C43.8305 28.4106 43.4749 28.5298 42.8419 28.6212C42.2088 28.7125 41.3498 28.768 40.4545 28.7779C38.6509 28.7975 36.8469 28.8171 35.0431 28.8327C32.8458 28.8517 30.6484 28.8648 28.4512 28.8648C27.2839 28.8648 26.1167 28.8631 24.9495 28.86C24.5538 28.859 24.1588 28.8297 23.7681 28.7719C23.6002 28.747 23.4347 28.7172 23.2687 28.682C21.9044 28.4404 20.6438 27.7828 19.874 27.1838C19.2324 26.6919 18.8434 26.2404 18.5364 25.8435C18.3261 25.5685 18.1561 25.3141 17.9892 25.0538C17.8997 24.9139 17.7807 24.7207 17.6512 24.4791C17.294 23.8239 16.8816 22.7817 16.7535 21.6196C16.6923 21.088 16.6323 20.5413 16.5792 20.0108C16.5079 19.298 16.4356 18.4686 16.3667 17.6768C16.268 16.5447 16.176 15.489 16.1029 14.9592C15.9746 14.0288 15.8627 12.9577 15.7638 12.0112C15.6696 11.1084 15.5871 10.3188 15.5135 9.8729C15.465 9.5795 15.4298 9.30877 15.397 9.01099C15.3686 8.75296 15.3526 8.47791 15.3544 8.15391C15.3598 7.65442 15.3978 7.03742 15.5878 6.22741C15.8156 5.29199 16.1261 4.6787 16.4125 4.18235C16.829 3.48891 17.199 3.00481 17.8157 2.34246C18.5054 1.6077 19.3997 1.00785 20.1667 0.682195C20.514 0.531336 20.9225 0.378681 21.3577 0.260895C21.9342 0.102998 22.5609 0.0099726 23.1339 0.0010677C23.5565 -0.00607526 23.9105 0.03166 24.2243 0.0809896C24.2599 0.0867216 24.2949 0.0923931 24.3295 0.0979871C24.4311 0.114435 24.5286 0.13019 24.6231 0.144882C24.9801 0.178997 25.3371 0.21297 25.6941 0.246683C25.7522 0.248414 25.8134 0.250018 25.8772 0.251744C26.1976 0.260401 26.5914 0.271109 27.0771 0.304352C27.8458 0.356971 28.5173 0.435187 29.2256 0.51778C29.7771 0.582086 30.3508 0.649029 31.0103 0.708454C31.4599 0.748974 31.9726 0.788562 32.4808 0.827809C33.2355 0.8861 33.9808 0.943713 34.4969 1.00254C34.6902 1.02458 34.8553 1.05562 35.0186 1.08642C35.0193 1.08658 35.02 1.08674 35.0207 1.0869C35.0318 1.08899 35.043 1.09107 35.0541 1.09315C36.314 1.20312 37.5742 1.31193 38.8343 1.42006C38.9438 1.42673 39.0544 1.43356 39.164 1.44035C39.6996 1.47355 40.22 1.50581 40.5606 1.51321C40.9297 1.52123 41.8527 1.5942 42.8254 1.67108C43.4623 1.72143 44.1209 1.7735 44.6591 1.8101C44.9737 1.8315 45.2699 1.87565 45.5746 1.9211C45.8589 1.96351 46.1507 2.00705 46.4718 2.0342C46.6326 2.0478 46.8067 2.05813 46.9925 2.06915C47.1561 2.07884 47.3291 2.08908 47.5099 2.10257C47.6779 2.11511 48.0504 2.15953 48.5281 2.2164C48.7072 2.23771 48.901 2.26076 49.1044 2.28457C49.2461 2.30095 49.3901 2.32116 49.5369 2.34562C50.5265 2.48349 51.4938 2.80597 52.3706 3.29384C52.5596 3.38539 52.7229 3.46689 52.8565 3.52747C52.9522 3.57091 53.0361 3.60482 53.1223 3.64136C53.2395 3.69125 53.3604 3.74483 53.5151 3.83794C53.6359 3.91058 53.7675 4.01145 53.8464 4.08995C53.8832 4.12644 53.9087 4.15754 53.9316 4.18582C53.9579 4.21823 53.9811 4.24722 54.0141 4.2775C54.038 4.29934 54.0658 4.31887 54.0997 4.34326C54.1539 4.38225 54.2243 4.43349 54.3169 4.52654C54.6617 4.87238 55.0159 5.30319 55.3151 5.75698C55.6499 6.26056 55.9151 6.79088 56.0976 7.2244C56.306 7.70866 56.5198 8.43571 56.6125 9.18074C56.6692 9.61716 56.6888 10.0571 56.6825 10.4522C56.6814 10.5206 56.6805 10.5876 56.6797 10.6529C56.6749 11.056 56.6844 11.4757 56.6938 11.8821C56.705 12.37 56.7158 12.8392 56.7007 13.238C56.6976 13.3187 56.6788 13.4188 56.6553 13.5445C56.6387 13.6335 56.6197 13.736 56.6021 13.8526C56.6021 14.3603 56.6014 14.868 56.5999 15.3756C56.6025 15.3935 56.6051 15.4119 56.6077 15.4304C56.6078 15.4307 56.6078 15.431 56.6079 15.4313C56.6676 15.8482 56.7493 16.4187 56.7006 17.2203C56.6882 17.424 56.6653 17.5523 56.6447 17.6679C56.6245 17.7814 56.6064 17.8828 56.6026 18.0313C56.5983 18.1999 56.6107 18.399 56.6242 18.6161C56.6432 18.9209 56.6643 19.2613 56.6446 19.6029C56.6433 19.6262 56.6418 19.6513 56.6403 19.6774C56.6263 19.925 56.6055 20.2916 56.5638 20.6563C56.5633 20.7075 56.5627 20.7588 56.5622 20.81C56.5525 21.9166 56.3112 23.022 55.8561 24.0274C55.0646 25.7907 53.6176 27.2331 51.8741 28.0205C51.0265 28.4097 50.1318 28.5646 49.4831 28.5527C48.831 28.5413 48.479 28.4048 48.4795 28.2871C48.4803 28.163 48.8259 28.0623 49.3992 27.8991C49.9727 27.7364 50.7247 27.4956 51.4556 27.1329C52.6496 26.5479 53.6641 25.6148 54.347 24.4875C54.3817 24.4276 54.4156 24.3671 54.4485 24.3065C54.6934 23.855 54.855 23.4044 54.9699 22.9475C54.9963 22.8422 55.0199 22.737 55.0414 22.6306Z" fill="#C5F700"/>
<path d="M48.1538 49.3901C48.0455 49.9266 47.326 50.0355 47.0631 49.5551L45.8325 47.2996C45.583 46.8438 45.1449 46.5207 44.6357 46.418L42.117 45.9089C41.5804 45.7998 41.4715 45.0803 41.952 44.8182L44.2075 43.5876C44.6634 43.3381 44.9864 42.8999 45.0899 42.3906L45.5982 39.8721C45.7065 39.3356 46.4268 39.2266 46.689 39.7071L47.9195 41.9626C48.169 42.4185 48.6072 42.7415 49.1165 42.845L51.635 43.3533C52.1715 43.4616 52.2804 44.1812 51.8 44.444L49.5446 45.6754C49.0887 45.9241 48.7656 46.3623 48.6621 46.8716L48.1538 49.3901Z" stroke="black"/>
<path d="M38.8912 12.2159C39.0904 11.9441 39.4258 11.4811 39.6456 11.3418C39.6495 11.3389 39.6534 11.3361 39.6573 11.3333C39.7078 11.2968 39.7577 11.2677 39.817 11.2393C39.8836 11.2081 39.9604 11.1768 40.0731 11.1495C40.2407 11.1122 40.459 11.0694 40.7694 11.0605C40.9389 11.0682 41.1083 11.0895 41.2752 11.1237C42.8716 11.4221 44.1869 13.0668 43.7859 14.6727C43.7293 14.9244 43.6603 15.1732 43.579 15.4193C43.5697 15.444 43.5602 15.4691 43.5504 15.4943C43.3656 15.9854 43.0612 16.5625 42.862 16.9238C42.6115 17.3848 42.4133 17.6873 42.2477 17.9337C42.0967 18.1361 41.9377 18.3335 41.7719 18.5256C40.8655 19.5926 39.5191 20.2698 38.0987 20.366C37.5771 20.4042 37.0489 20.3695 36.5336 20.2659C36.059 20.1706 35.5958 20.0178 35.1567 19.8133C34.9052 19.6845 34.6775 19.5433 34.4743 19.4014C34.1889 19.2022 33.9537 19.003 33.7624 18.8358C33.5181 18.6228 33.2675 18.3821 33.0439 18.1356C32.8384 17.9092 32.6469 17.6881 32.4879 17.4939C32.4325 17.4263 32.381 17.3619 32.334 17.3019C32.0883 16.9562 31.8626 16.5991 31.6643 16.2311C31.6463 16.2092 31.6282 16.1871 31.6098 16.1646C31.3839 15.8827 31.1718 15.4879 30.9625 14.8371C30.8738 14.5532 30.789 14.2196 30.7357 13.8222C30.7028 13.5664 30.6751 13.4352 30.6514 13.3267C30.6446 13.2948 30.6386 13.2646 30.634 13.2341C30.6182 13.1295 30.6385 13.0189 30.668 12.8911C30.6682 12.8905 30.6683 12.8898 30.6685 12.8891C30.7072 12.7303 30.7619 12.5519 30.8072 12.3068C30.9836 11.5115 31.3643 11.2815 31.5724 11.1311C31.6393 11.0868 31.701 11.0496 31.7618 11.0088C31.9566 10.8751 32.2289 10.6778 32.4539 10.5434C32.6287 10.4311 33.0339 10.3147 33.3456 10.2961C33.4631 10.2872 33.6198 10.2658 33.8057 10.258C33.9978 10.2499 34.2218 10.2571 34.4537 10.3044C34.4981 10.3134 34.5407 10.323 34.5817 10.333C34.9951 10.45 35.1681 10.6534 35.3136 10.8066C35.3567 10.8556 35.3967 10.9052 35.4343 10.9559C35.5541 11.1161 35.6887 11.3375 35.8037 11.5843C35.9422 11.8784 36.0524 12.2032 36.1195 12.4569C36.3441 13.0988 36.5002 13.7863 36.6127 14.4835C36.6704 14.8411 36.7578 15.1826 36.8669 15.4347C36.9757 15.6785 37.0989 15.8317 37.2221 15.8201C37.3458 15.8258 37.4607 15.6564 37.5334 15.3879C37.6058 15.1112 37.6268 14.7373 37.5855 14.3541C37.501 13.5805 37.3691 12.8082 37.1299 12.0424C36.8257 11.1364 36.4139 10.094 35.3133 9.53429C35.1401 9.45283 34.9563 9.39299 34.765 9.35739C34.2077 9.25362 33.6342 9.26312 33.0845 9.37602C33.0111 9.39107 32.9379 9.40805 32.8655 9.42675C32.2633 9.54144 31.6909 9.80655 31.3281 10.0589C31.0268 10.2657 30.8433 10.4678 30.6989 10.6458C30.5997 10.7693 30.519 10.8836 30.4351 10.9978C30.3902 11.0592 30.3295 11.1443 30.2628 11.2512C30.0464 11.587 29.7872 12.1831 29.7567 12.822C29.747 12.9897 29.7467 13.1579 29.7558 13.3219C29.7731 13.6541 29.8387 14.0339 29.9337 14.3822C30.0674 14.8821 30.2575 15.3145 30.3342 15.5385C30.4677 15.9341 30.6905 16.3561 30.9093 16.7097C31.1173 17.0479 31.3183 17.3272 31.4128 17.4999C31.5261 17.7061 31.6518 17.8624 31.8447 18.0865C31.9789 18.2416 32.1457 18.4293 32.3724 18.6823C32.3791 18.6898 32.3859 18.6973 32.3926 18.7047C32.6537 18.9928 32.8662 19.1707 33.0514 19.3178C33.3198 19.5274 33.5286 19.6735 33.827 19.9112C34.1596 20.1751 34.5457 20.4059 34.8703 20.5397C35.0175 20.6009 35.1864 20.672 35.3646 20.7378C35.6008 20.8254 35.8546 20.9036 36.0922 20.95C36.288 20.9883 36.4542 20.9963 36.6002 20.9996C36.6458 21.0006 36.6893 21.0011 36.7316 21.0019C36.8871 21.0255 37.043 21.0438 37.1998 21.057C37.2249 21.0629 37.2513 21.0691 37.2789 21.0754C37.4173 21.1069 37.5901 21.1419 37.8064 21.1531C38.1487 21.1701 38.4501 21.1297 38.7605 21.0666C39.0024 21.0167 39.2505 20.9526 39.5337 20.8749C39.727 20.8219 39.9465 20.7574 40.1604 20.6803C40.4789 20.5666 40.7824 20.4229 40.9779 20.2958C41.0514 20.2483 41.1063 20.1963 41.1602 20.1438C41.1605 20.1435 41.1607 20.1433 41.1609 20.143C41.1646 20.1395 41.1682 20.1359 41.1719 20.1323C41.6285 19.8494 42.049 19.5058 42.4206 19.1159C42.4377 19.098 42.4547 19.0801 42.4717 19.0621C42.5064 19.0294 42.541 18.9961 42.5752 18.9628C42.7426 18.8004 42.8999 18.636 43.0115 18.5352C43.133 18.4263 43.3934 18.114 43.6414 17.7617C43.8046 17.5315 43.9626 17.2851 44.0898 17.0814C44.1642 16.9623 44.2114 16.8365 44.2568 16.7067C44.2993 16.5853 44.3402 16.4609 44.4008 16.3313C44.431 16.2665 44.4672 16.1975 44.5045 16.1237C44.5375 16.0584 44.5716 15.9891 44.6038 15.9148C44.6336 15.8459 44.6841 15.6859 44.739 15.4786C44.773 15.3505 44.8086 15.2043 44.843 15.0503C44.853 15.016 44.8628 14.9816 44.8723 14.947C44.982 14.5501 45.0298 14.1302 45.0063 13.7127C45.0129 13.6168 45.0207 13.5322 45.034 13.4632C45.0435 13.4137 45.0563 13.3704 45.0687 13.3256C45.0855 13.2644 45.1018 13.1997 45.1053 13.1135C45.1081 13.0461 45.0956 12.9691 45.0747 12.9211C45.0651 12.8987 45.0539 12.8827 45.0437 12.8682C45.032 12.8517 45.0215 12.837 45.0156 12.8171C45.0113 12.8027 45.0111 12.7865 45.0106 12.7664C45.0098 12.7344 45.0084 12.6925 44.9884 12.6347C44.9141 12.42 44.8048 12.1856 44.678 11.9698C44.5378 11.7289 44.3768 11.5115 44.2432 11.3435C44.0948 11.1542 43.8458 10.9164 43.572 10.7164C43.3814 10.5757 43.1808 10.4521 43.0054 10.3526C42.8341 10.2549 42.656 10.1518 42.4764 10.0631C42.2614 9.95633 42.0434 9.87077 41.8493 9.83337C41.8101 9.82578 41.7571 9.83116 41.692 9.83968C41.6458 9.84571 41.5929 9.85323 41.534 9.85907C41.2934 9.80981 41.0474 9.78119 40.8014 9.77427C40.7928 9.77143 40.7839 9.76856 40.775 9.76566C40.7748 9.7656 40.7747 9.76553 40.7746 9.76547C40.5758 9.70093 40.2792 9.62116 39.8919 9.73677C39.8582 9.74695 39.8293 9.75797 39.8037 9.76932C39.7465 9.79261 39.7047 9.81744 39.6666 9.84114C39.6094 9.87694 39.5619 9.90937 39.4847 9.93995C39.3973 9.97478 39.2917 10.0041 39.1778 10.0458C39.0187 10.1037 38.8457 10.1873 38.7126 10.3161C38.7036 10.3248 38.694 10.3342 38.6841 10.344C38.589 10.4372 38.4608 10.5819 38.369 10.7459C38.0148 11.1541 37.7764 11.6076 37.5896 12.0612C37.2821 12.82 37.1127 13.5957 36.9996 14.3664C36.9447 14.7457 36.9542 15.108 37.0161 15.3868C37.079 15.6575 37.1874 15.8223 37.3088 15.8214C37.4294 15.8354 37.5543 15.6945 37.6713 15.4566C37.789 15.2106 37.8892 14.8878 37.9654 14.5403C38.0888 13.9781 38.2472 13.4273 38.4556 12.9134C38.4679 12.887 38.4803 12.8606 38.4926 12.8344C38.5849 12.6395 38.6946 12.4736 38.8105 12.3196C38.8372 12.2843 38.8639 12.2501 38.8912 12.2159Z" fill="white"/>
<path d="M17.8234 26.6272C15.1643 28.2665 11.9682 28.1541 10.8901 28.0585C10.6686 28.0389 10.4567 28.1601 10.376 28.3673C9.92564 29.5231 8.46178 33.3977 7.25886 37.9087C6.038 42.4869 5.85176 47.3297 5.82335 48.7007C5.81871 48.9245 5.96353 49.1148 6.18245 49.1617C9.45501 49.8628 33.737 54.7056 36.3115 44.6316C37.9522 41.2119 38.1252 40.7872 38.7125 38.3889C39.509 35.1362 39.3848 31.6401 35.0222 30.2109C32.236 29.2981 29.5897 29.2541 28.0455 29.3408C27.5892 29.3664 27.2573 28.7571 27.5262 28.3875C28.6539 26.8376 30.4126 23.8908 29.8286 21.2215C29.3711 19.13 26.3032 17.7888 25.043 19.5256C22.5055 23.0227 20.9448 24.7029 17.8234 26.6272Z" fill="white"/>
<path d="M36.3115 44.6316C33.737 54.7056 9.45501 49.8628 6.18245 49.1617C5.96353 49.1148 5.81871 48.9245 5.82335 48.7007C5.85176 47.3297 6.038 42.4869 7.25886 37.9087C8.46178 33.3977 9.92564 29.5231 10.376 28.3673C10.4567 28.1601 10.6686 28.0389 10.8901 28.0585C11.9682 28.1541 15.1643 28.2665 17.8234 26.6272C20.9448 24.7029 22.5055 23.0227 25.043 19.5256C26.3032 17.7888 29.3711 19.13 29.8286 21.2215C30.4126 23.8908 28.6539 26.8376 27.5262 28.3875C27.2573 28.7571 27.5892 29.3664 28.0455 29.3408C29.5897 29.2541 32.236 29.2981 35.0222 30.2109C39.3848 31.6401 39.509 35.1362 38.7125 38.3889M36.3115 44.6316C37.9522 41.2119 38.1252 40.7872 38.7125 38.3889M36.3115 44.6316L25.7469 43.7912M38.7125 38.3889L27.7878 37.0683" stroke="black"/>
<path d="M9.6598 50.3941L9.44342 51.1154C8.97229 52.6858 7.28746 53.5471 5.7386 53.0093L1.87175 51.6667C0.712642 51.2642 -0.0614279 50.1749 0.0038328 48.9497C0.143187 46.3333 0.567069 41.5571 1.85641 36.7082C2.91176 32.7393 4.8981 28.5932 5.9106 26.6133C6.29946 25.8529 7.02331 25.3306 7.86219 25.1702L11.25 24.5225C12.9451 24.1985 14.4576 25.6345 14.2218 27.3441" stroke="black"/>
</svg>
